<?xml version="1.0" encoding="utf-8"?>
<!-- Generator: Adobe Illustrator 26.3.1, SVG Export Plug-In . SVG Version: 6.00 Build 0)  -->
<svg version="1.1" id="Calque_1" xmlns="http://www.w3.org/2000/svg" xmlns:xlink="http://www.w3.org/1999/xlink" x="0px" y="0px"
	 viewBox="0 0 1920 1080" style="enable-background:new 0 0 1920 1080;" xml:space="preserve">
<g>
	<path d="M1469.22,465.76c0,6.66,0,13.05,0,19.84c-212.14,0-424.04,0-636.42,0c0-6.45,0-12.97,0-19.84
		C1044.81,465.76,1256.86,465.76,1469.22,465.76z"/>
	<path d="M630.53,372.97c0-6.73,0-13.13,0-19.83c161.28,0,322.28,0,483.61,0c0,6.57,0,12.98,0,19.83
		C953.16,372.97,792.19,372.97,630.53,372.97z"/>
	<path d="M506.53,598.21c0-6.85,0-13.11,0-19.84c137.59,0,275,0,412.86,0c0,6.41,0,12.93,0,19.84
		C781.86,598.21,644.46,598.21,506.53,598.21z"/>
	<path d="M562.97,332.14c0-8.32,0.01-16.2-0.01-24.07c-0.01-2.15-0.05-4.31-0.22-6.46c-0.3-3.74-2.59-6.59-6.06-6.31
		c-2.74,0.23-6.03,2.19-7.69,4.42c-1.51,2.03-1.5,5.45-1.57,8.26c-0.19,7.87-0.06,15.76-0.06,24.06c-4.12,0-7.8,0-12.49,0
		c0-3.03,0.01-6.16,0-9.29c-0.03-6.83-0.03-13.66-0.13-20.49c-0.05-3.67-1.97-6.9-5.5-6.8c-2.91,0.08-7.02,1.76-8.32,4.03
		c-1.81,3.17-1.86,7.54-2.02,11.42c-0.28,6.96-0.08,13.94-0.08,21.22c-4.23,0-7.92,0-12.05,0c0-15.21,0-30.34,0-45.8
		c3.22,0,6.39,0,10,0c0.31,1.49,0.66,3.14,0.89,4.22c4.56-1.97,8.97-4.83,13.75-5.68c5.53-0.98,9.92,2.35,12.07,6.2
		c5.59-2.23,10.69-5.56,16.08-6.12c8.55-0.89,14.91,4.52,15.49,13.04c0.76,11.22,0.19,22.53,0.19,34.13
		C571.28,332.14,567.58,332.14,562.97,332.14z"/>
	<path d="M738.34,405.39c4.7-5.24,9.52-8.63,16.33-8.03c7.86,0.7,13.59,5.13,14.06,13.03c0.66,11.25,0.17,22.57,0.17,34.23
		c-3.75,0-7.58,0-12.03,0c0-9.12,0.02-18.06-0.01-27.01c-0.02-6.52-2.09-9.48-6.75-9.76c-4.68-0.29-7.89,2.45-8.48,8.49
		c-0.63,6.42-0.44,12.93-0.56,19.4c-0.06,2.85-0.01,5.69-0.01,8.89c-4.15,0-7.83,0-12.25,0c0-7.87,0.01-15.72,0-23.57
		c0-2.16,0.18-4.35-0.14-6.47c-0.52-3.39-1.97-6.21-5.93-6.67c-3.83-0.45-6.98,0.92-8.36,4.47c-1.08,2.77-1.56,5.9-1.65,8.9
		c-0.22,7.69-0.07,15.39-0.07,23.39c-4.23,0-7.93,0-12.04,0c0-15.23,0-30.42,0-45.88c3.32,0,6.49,0,9.95,0
		c0.41,1.66,0.82,3.37,1.05,4.32c4.49-1.9,8.92-4.63,13.7-5.56C730.99,396.45,735.07,400.2,738.34,405.39z"/>
	<path d="M945.48,557.24c-4.24,0-7.95,0-12.08,0c0-15.14,0-30.3,0-45.81c3.33,0,6.64,0,10.1,0c0.36,1.88,0.68,3.57,1.03,5.41
		c13.24-9.6,17.78-9.45,26.86,0.84c4.78-5.25,10.22-8.96,17.86-7.38c7.23,1.5,12.06,5.54,12.48,12.88
		c0.64,11.24,0.17,22.55,0.17,34.11c-4.05,0-7.76,0-12.2,0c0-5.45,0.04-10.77-0.01-16.09c-0.05-4.85,0.4-9.82-0.56-14.49
		c-0.48-2.33-3.49-5.59-5.59-5.77c-2.55-0.22-6.09,1.77-7.79,3.92c-1.56,1.97-1.6,5.41-1.67,8.23c-0.2,7.88-0.07,15.77-0.07,24.08
		c-4.21,0-8.02,0-12.42,0c0-7.9,0-15.6,0-23.3c0-1.62,0.02-3.24-0.05-4.86c-0.18-4.53-1.43-8.25-6.89-8.49
		c-4.41-0.19-8.21,2.82-8.59,7.91c-0.58,7.7-0.42,15.45-0.56,23.18C945.46,553.38,945.48,555.14,945.48,557.24z"/>
	<path d="M928.55,403.28c3.98-1.74,8.6-5.04,13.55-5.67c9.69-1.22,16.32,4.85,16.76,14.7c0.47,10.58,0.11,21.2,0.11,32.24
		c-3.99,0-7.81,0-12.28,0c0-5.75,0.03-11.45-0.01-17.14c-0.03-4.32,0-8.64-0.28-12.94c-0.23-3.61-2.11-6.12-5.96-6.53
		c-4.09-0.43-7.28,1.22-8.31,5.22c-0.88,3.43-1.11,7.08-1.2,10.64c-0.18,6.81-0.05,13.62-0.05,20.81c-4.04,0-7.72,0-12.19,0
		c0-5.45,0.04-10.94-0.01-16.44c-0.04-4.67,0.42-9.47-0.55-13.96c-0.51-2.37-3.23-5.14-5.6-6.04c-3.43-1.3-6.95,0.45-8.34,4.09
		c-1.06,2.77-1.53,5.9-1.61,8.88c-0.22,7.7-0.07,15.41-0.07,23.48c-4.34,0-8.16,0-12.32,0c0-15.26,0-30.29,0-45.72
		c3.39,0,6.71,0,10.2,0c0.39,1.62,0.81,3.33,0.97,4.01c4.76-1.88,9.42-5.21,14.03-5.14C919.91,397.86,924.37,401.4,928.55,403.28z"
		/>
	<path d="M1052.92,557.36c-4.25,0-7.8,0-12.28,0c0-6.4,0.01-12.79,0-19.18c-0.01-3.41,0.12-6.84-0.15-10.24
		c-0.3-3.87-1.77-7.05-6.31-7.39c-4.35-0.33-7.37,1.65-8.58,5.78c-0.69,2.36-0.91,4.93-0.95,7.41c-0.12,7.69-0.04,15.38-0.04,23.45
		c-4.41,0-8.23,0-12.37,0c0-15.26,0-30.28,0-45.7c3.39,0,6.69,0,10.16,0c0.37,1.7,0.75,3.41,0.94,4.25
		c4.76-1.99,9.23-4.84,14.03-5.6c5.54-0.89,9.76,2.78,12.76,7.81c5.18-5.55,10.71-9.44,18.62-7.52c6.92,1.67,11.61,5.71,11.96,12.74
		c0.56,11.24,0.15,22.54,0.15,34.12c-3.96,0-7.63,0-12.09,0c0-6.37,0-12.59,0-18.82c0-3.24,0.09-6.48-0.06-9.7
		c-0.18-4.05-1.39-7.55-6.13-8.16c-5.01-0.64-8.11,1.99-8.78,6.66c-0.73,5.11-0.71,10.34-0.85,15.53
		C1052.82,547.44,1052.92,552.09,1052.92,557.36z"/>
	<path d="M539.57,628.26c0.78-7.29,6.43-3.58,11.25-4.29c0,10,0.14,19.66-0.05,29.31c-0.13,6.44,0.19,13.09-1.32,19.25
		c-3.98,16.26-27.81,22.62-39.74,10.83c-2.25-2.23-3.46-5.51-5.72-9.25c6.61,0.1,11.3-1.22,16.31,2.98
		c6.26,5.26,18.81,0.14,18.14-11.69c-4.94,4.49-10.36,6.65-16.71,5.48c-0.53-0.1-1.08-0.11-1.6-0.23
		c-11.28-2.38-17.68-15.77-14.7-30.79c2.33-11.77,11.81-18.94,22.98-16.7C532.26,623.94,535.75,626.46,539.57,628.26z
		 M538.79,647.59c-0.41-2.29-0.56-4.27-1.14-6.12c-1.53-4.91-4.84-8.13-10.09-8.15c-5.39-0.02-8.94,3.36-9.54,8.45
		c-0.5,4.25-0.55,9.22,1.24,12.86c1.4,2.85,5.91,5.66,9.07,5.7c2.87,0.04,6.23-3.3,8.53-5.9
		C538.32,652.78,538.24,649.76,538.79,647.59z"/>
	<path d="M535.84,379.39c4.55,0,8.1,0,12.1,0c0,21.77,0,43.37,0,65.37c-4.13-0.34-8.76,2.41-11.7-2.85
		c-13.51,10.01-29.71,1.98-31.26-14.8c-0.44-4.75-0.34-9.77,0.71-14.39c2.5-11.08,14.16-20.61,30.15-11.83
		C535.84,393.69,535.84,386.85,535.84,379.39z M517.07,421.48c-0.02,8.97,3.31,13.93,9.26,13.81c5.99-0.12,9.42-5.19,9.39-13.87
		c-0.03-8.22-3.53-13.08-9.51-13.2C520.33,408.09,517.09,412.79,517.07,421.48z"/>
	<path d="M641.54,513.64c0-3.89,0-7.23,0-10.57c0-3.38,0-6.77,0-10.59c4.23,0,8.04,0,12.14,0c0,21.52,0,42.83,0,64.71
		c-4.05-0.14-8.49,2.59-11.35-2c-4.13,1.25-8.29,3.44-12.51,3.58c-7.78,0.26-13.8-3.52-17-10.93c-3.74-8.66-3.91-17.49-0.26-26.16
		c4.53-10.75,16-14.63,26.41-9.24C639.58,512.75,640.2,513.01,641.54,513.64z M641.49,533.21c-0.21-1.16-0.35-3.52-1.09-5.69
		c-1.48-4.37-4.74-6.91-9.35-6.67c-4.86,0.25-7.25,3.74-7.9,8.16c-0.46,3.16-0.47,6.47-0.11,9.64c0.67,5.82,4.12,9.34,8.62,9.4
		c4.55,0.05,8.65-3.91,9.55-9.37C641.44,537.27,641.37,535.81,641.49,533.21z"/>
	<path d="M807.1,626.83c1.56-3.48,2.01-3.62,11.54-2.39c0,20.28,0,40.61,0,61.15c-3.97,0-7.67,0-11.83,0c0-6.28,0-12.32,0-19.42
		c-5.87,4.39-11.39,6.67-18.01,4.68c-10.38-3.12-16-13.68-14.57-28.03c1.13-11.34,7.94-19.63,17.65-19.73
		C796.86,623.02,801.86,625.46,807.1,626.83z M806.98,647.07c-0.71-2.69-0.7-6.21-2.43-8.33c-2.03-2.5-5.59-5.28-8.41-5.2
		c-2.81,0.09-6.51,3-8.04,5.68c-2.82,4.98-2.98,11,0.14,15.91c1.65,2.6,5.54,5.46,8.23,5.29c3.04-0.18,6.35-3.23,8.65-5.81
		C806.57,652.99,806.36,649.92,806.98,647.07z"/>
	<path d="M648.23,623.95c4.39,1.01,10.02-3.14,11.97,4.23c14.94-12.55,30.85-1.86,31.66,14.63c0.3,6.23-0.61,13.13-3.11,18.77
		c-4.71,10.6-16.89,12.95-26.32,6.18c-0.52-0.38-1.09-0.69-2.28-1.44c0,6.69,0,12.71,0,19.13c-4.14,0-7.82,0-11.92,0
		C648.23,665.29,648.23,645.06,648.23,623.95z M660.43,646.88c-0.16,8.72,3.7,14.14,9.96,13.97c5.85-0.16,9.75-5.81,9.61-13.94
		c-0.15-8.39-4.01-13.86-9.78-13.85C664.37,633.07,660.58,638.42,660.43,646.88z"/>
	<path d="M791.56,440.54c0,6.82,0,12.34,0,18.31c-4.03,0-7.69,0-11.83,0c0-19.78,0-39.65,0-59.92c3.17,0,6.5,0,10.33,0
		c0.36,1.07,0.83,2.48,0.98,2.92c4.81-1.57,9.25-3.13,13.76-4.43c1.12-0.32,2.51,0.08,3.73,0.36c9.47,2.16,15.37,11.71,15.21,24.53
		c-0.15,12.53-6.18,21.54-15.78,23.54C802.1,447.07,796.97,445.54,791.56,440.54z M811.39,422.24c-0.23-2.14-0.19-4.16-0.7-6.05
		c-1.19-4.41-3.37-8.08-8.59-8.26c-5.07-0.18-8.42,2.82-9.31,7.34c-0.84,4.26-0.85,8.93-0.04,13.2c0.83,4.39,4.29,6.89,9.08,6.85
		c4.66-0.04,7.24-2.79,8.52-6.89C810.97,426.41,811.07,424.22,811.39,422.24z"/>
	<path d="M713.41,670.13c-4.38,0-8.08,0-12.2,0c0-21.63,0-43.1,0-65.02c3.75,0,7.59,0,12.04,0c0,7.09,0,14.21,0,20.56
		c5.41-0.96,10.4-2.7,15.31-2.53c7.69,0.25,12.86,5.47,13.17,13.1c0.46,11.11,0.12,22.26,0.12,33.8c-3.86,0-7.53,0-12.2,0
		c0-3.04,0.01-6.17,0-9.3c-0.02-6.66,0.09-13.32-0.11-19.97c-0.12-3.94-1.88-7.06-6.21-7.58c-4.07-0.49-7.18,1.46-8.49,5.21
		c-0.98,2.81-1.28,5.95-1.36,8.96C713.29,654.7,713.41,662.06,713.41,670.13z"/>
	<path d="M1312.04,547.57c-1.56,4.27,0.15,9.55-5.88,10.75c-5.16,1.02-9.32-0.19-11.43-5.85c-5.91,4.66-11.88,7.62-19.19,6
		c-6.08-1.35-10.05-5.41-10.86-11.19c-0.83-5.92,1.4-11.61,7.09-13.77c6.77-2.57,14.07-3.76,21.62-5.68
		c0.46-3.31-0.9-6.24-4.93-7.61c-5.01-1.71-9.62,0.71-14.82,7.88c-2.8-1.68-5.63-3.37-8.32-4.99c3.72-13.55,27.13-17.9,36.27-7.17
		c2.14,2.51,3.25,6.39,3.67,9.78c0.61,4.96,0.41,10.07,0.09,15.09C1305.04,545.51,1305.87,548.72,1312.04,547.57z M1293.26,536.55
		c-4.31,0.94-8.64,1.31-12.42,2.95c-1.79,0.77-2.53,3.97-3.74,6.07c2.25,0.99,4.55,2.91,6.73,2.78
		C1289.61,548.01,1292.96,543.68,1293.26,536.55z"/>
	<path d="M785.89,527.82c0.43-3.37-0.84-6.16-4.71-7.5c-5.23-1.81-9.67,0.42-14.88,7.76c-2.8-1.62-5.65-3.26-8.88-5.12
		c3.65-8,9.78-11.68,17.72-12.73c7.71-1.01,14.95,0.17,19.84,6.8c1.78,2.41,2.57,5.91,2.85,9c0.46,5,0.25,10.07,0.09,15.1
		c-0.14,4.26-0.13,8.09,6.63,5.94c-1.45,4.65,0.3,9.77-5.58,11.13c-5.05,1.16-9.38,0.33-11.56-5.67c-5.9,4.22-11.72,7.59-19.02,5.98
		c-6.34-1.4-10.39-5.43-11.22-11.49c-0.81-5.82,1.56-11.44,7.36-13.63C771.14,530.9,778.26,529.74,785.89,527.82z M785.83,536.8
		c-3.3,0.46-6.11,0.79-8.89,1.28c-1.22,0.21-2.82,0.4-3.47,1.22c-1.51,1.88-2.54,4.14-3.77,6.24c2.21,1,4.48,2.95,6.63,2.82
		C782.12,548.01,785.46,543.74,785.83,536.8z"/>
	<path d="M621.96,640.93c0.61-3.94-0.71-7-4.64-7.96c-6.8-1.67-11.31,1.8-14.67,7.92c-3.06-1.84-5.92-3.56-8.7-5.23
		c5.36-14.89,27.32-16.05,34.78-8.58c2.76,2.77,4.49,7.27,5.18,11.24c0.87,5.06,0.33,10.4,0.16,15.61
		c-0.15,4.39,0.21,7.96,6.62,5.81c-1.21,4.84,0.38,10.04-6.02,11.31c-5.16,1.02-8.78-0.62-10.8-5.13c-4.25,1.82-8.3,4.19-12.67,5.29
		c-7.69,1.94-15.36-2.5-17.25-9.25c-2.16-7.71,1.36-14.66,9.65-17.29C609.36,642.84,615.49,642.2,621.96,640.93z M621.66,648.93
		c-4.76,1.43-9.39,2.5-13.69,4.32c-1.18,0.5-2.13,3.37-1.84,4.91c0.23,1.21,2.39,2.65,3.9,2.94
		C616.47,662.31,622.08,656.87,621.66,648.93z"/>
	<path d="M675.02,537.54c0.28,4.97,1.79,8.98,6.01,9.88c3.3,0.7,8.69,0.61,10.27-1.4c4.93-6.26,9.11-2.54,13.84-0.89
		c-3.06,8.64-9.71,13.29-19.4,13.85c-8.65,0.5-17.08-4.24-20.67-11.95c-3.84-8.26-3.91-16.72-0.09-24.98
		c4.57-9.88,15.61-14.43,26.28-11.11c8.97,2.8,16.16,13.96,14.54,23.28c-0.23,1.3-2.81,3.02-4.38,3.11
		c-6.8,0.37-13.63,0.2-20.46,0.23C679.05,537.55,677.14,537.54,675.02,537.54z M693.05,527.9c-1.08-5.22-3.8-7.89-8.92-7.74
		c-4.8,0.15-7.51,2.62-8.29,7.74C681.65,527.9,687.13,527.9,693.05,527.9z"/>
	<path d="M517.23,537.54c0.35,5.61,2.43,9.11,7.12,10.52c4.6,1.38,8.71,0.19,11.34-3.86c1.78-2.74,3.6-2.24,5.9-1.29
		c1.81,0.75,3.68,1.33,5.5,1.97c-2.27,10.63-15.28,16.72-27.24,12.94c-12.15-3.83-18.37-17.81-14.21-31.93
		c3.63-12.32,14.8-18.48,27.41-15.11c9.03,2.42,16.74,14.24,14.99,23.53c-0.23,1.23-2.55,2.85-3.98,2.92
		c-6.62,0.36-13.28,0.24-19.92,0.29C522.02,537.56,519.89,537.54,517.23,537.54z M534.69,527.97c-0.8-5.63-3.74-8.21-8.79-7.88
		c-4.62,0.3-7.15,3.01-7.24,7.88C524,527.97,529.33,527.97,534.69,527.97z"/>
	<path d="M742.79,311.89c-0.28,5.95,2.04,9.4,6.63,10.78c6.04,1.82,10.4-1.04,13.56-6.38c3.32,1.15,6.5,2.24,9.66,3.33
		c-2.43,7.86-9.1,13.2-17.46,13.89c-9.34,0.77-17.18-2.16-21.92-10.61c-4.79-8.55-4.72-17.62-0.72-26.45
		c4.05-8.92,13.5-13.23,23.9-11.39c8.75,1.55,15.49,9.1,16.6,18.85c0.28,2.44,0.04,4.93,0.04,7.98
		C762.86,311.89,753.04,311.89,742.79,311.89z M743.01,302.52c5.99,0,11.44,0,17.07,0c-0.11-4.94-2.97-7.12-7-7.64
		C747.96,294.21,744.55,296.59,743.01,302.52z"/>
	<path d="M723.07,311.95c-9.97,0-19.62,0-29.56,0c-0.78,5.1,1.18,8.32,5.22,10.29c5.02,2.45,9.54,0.63,14.89-5.9
		c3.15,1.13,6.44,2.31,9.77,3.5c-4.44,9.83-12.22,14.47-22.53,13.74c-9.6-0.68-16.99-6.88-19.62-16.46
		c-4.55-16.56,4.53-31.62,19.5-32.36C715.7,284.02,725.36,295.4,723.07,311.95z M693.47,302.4c5.92,0,11.45,0,17.4,0
		c-1.07-4.98-3.66-7.45-8.2-7.62C697.65,294.6,694.79,297.22,693.47,302.4z"/>
	<path d="M922.11,650c-10.56,0-20.39,0-30.39,0c-0.42,5.49,1.91,8.84,6.26,10.6c4.91,1.99,9.16,0,13.98-6.28
		c3.15,1.09,6.46,2.24,9.79,3.39c-3.59,9.16-11.43,14.22-21.16,13.95c-9.49-0.26-18.07-5.92-20.22-14.91
		c-1.34-5.57-1.58-11.87-0.44-17.46c2.34-11.54,11.34-17.43,22.99-16.47c10.53,0.87,18.07,8.65,19.16,19.89
		C922.28,644.83,922.11,646.98,922.11,650z M892.14,640.33c5.78,0,11.3,0,17.22,0c-1.2-5.33-4.14-7.64-8.86-7.52
		C895.78,632.92,892.98,635.4,892.14,640.33z"/>
	<path d="M1117.71,424.57c-10,0-19.85,0-30.03,0c-0.09,5.26,1.76,8.76,6.25,10.6c5.01,2.06,8.91,0.39,14.2-5.98
		c0.94,0.23,2,0.38,2.98,0.73c2.18,0.78,4.33,1.65,6.46,2.48c-3.53,14.57-25.52,18.59-36.25,7.38c-9.17-9.58-8.66-28.29,1.14-37.24
		c6.25-5.71,17.09-6.93,24.74-2.8C1115.14,404.02,1119.65,414.13,1117.71,424.57z M1104.99,415.33c-0.64-5.22-3.41-7.94-8.05-8.01
		c-4.69-0.07-7.44,2.52-8.24,8.01C1094.16,415.33,1099.57,415.33,1104.99,415.33z"/>
	<path d="M569.27,424.48c0.69,6.28,2.84,9.96,7.95,11.11c5.76,1.29,9.57-1.71,12.69-6.59c3.24,1.1,6.4,2.17,9.5,3.22
		c-1.57,10.25-16.12,17.4-28.49,12.56c-9.22-3.61-13.38-10.94-14-20.52c-0.64-9.95,1.67-18.86,10.88-24.1
		c7.32-4.17,15.24-4.29,22.52,0.41c8.33,5.38,10.29,13.71,9.9,23.92C589.92,424.48,579.82,424.48,569.27,424.48z M587.21,415.48
		c-1.54-6.16-4.61-8.73-9.38-8.07c-4.52,0.63-7.15,3.16-7.65,8.07C576.12,415.48,581.47,415.48,587.21,415.48z"/>
	<path d="M1000.62,429.09c3.01,1.04,6.15,2.13,9.27,3.21c-3.13,10.41-14.41,16.12-25.73,13.39c-12.72-3.07-19.59-15.99-16.37-30.77
		c2.69-12.3,13.4-19.52,25.7-17.31c11.39,2.04,18.47,13.02,16.71,26.81c-9.84,0-19.79,0-29.97,0c-0.53,5.37,1.4,8.68,5.48,10.6
		C990.69,437.36,994.94,435.62,1000.62,429.09z M980.48,415.29c6,0,11.44,0,17.37,0c-1.03-5.07-3.67-7.82-8.37-7.9
		C984.63,407.31,981.52,409.79,980.48,415.29z"/>
	<path d="M597.07,286.42c0,9.25,0.06,18.03-0.02,26.82c-0.04,4.62,1.21,8.28,6.33,9.15c4.11,0.7,8.26-2.25,9.1-7.36
		c0.83-5.09,0.62-10.36,0.75-15.55c0.1-4.27,0.02-8.55,0.02-13.13c4.37,0,8.21,0,12.37,0c0,15.28,0,30.29,0,45.93
		c-4.56-0.73-10.05,3.36-12.18-3.45c-3.51,1.56-6.88,3.9-10.54,4.51c-8.8,1.47-16.97-4.3-17.66-13.27
		c-0.84-11.03-0.2-22.17-0.2-33.65C588.7,286.42,592.54,286.42,597.07,286.42z"/>
	<path d="M1090.7,511.32c4.28,0,7.99,0,12.46,0c0,5.72,0,11.24,0,16.76c0,3.6,0.03,7.19,0.01,10.79c-0.02,4.59,1.19,8.32,6.55,8.81
		c4.57,0.42,8.58-2.84,8.98-8.14c0.55-7.34,0.35-14.73,0.46-22.1c0.03-1.92,0-3.85,0-6.05c4.37,0,8.07,0,12.2,0
		c0,15.2,0,30.36,0,46.21c-4.08-1.39-9.64,3.3-11.61-3.03c-4.45,1.35-9.02,3.84-13.63,3.91c-8.95,0.13-14.94-5.86-15.31-14.81
		C1090.36,533.09,1090.7,522.47,1090.7,511.32z"/>
	<path d="M1468.64,557.32c-3.59,0-7.33,0-11.86,0c0-7.92,0-15.77,0-23.62c0-1.98,0.62-4.28-0.17-5.87
		c-1.32-2.63-3.22-6.25-5.49-6.77c-2.39-0.55-6.29,1.37-8.07,3.45c-1.75,2.04-2.19,5.63-2.3,8.57c-0.29,7.88-0.1,15.78-0.1,24.08
		c-4.23,0-8.07,0-12.27,0c0-15.14,0-30.17,0-45.17c8.1-2.21,10.01-1.56,11.88,4.48c5.04-5.06,10.62-8.04,17.87-5.84
		c5.46,1.65,9.99,5,10.3,10.52C1469.11,533.09,1468.64,545.09,1468.64,557.32z"/>
	<path d="M1374.43,534.22c0.21-14.99,9.27-24.6,22.94-24.33c13.48,0.27,22.64,10.35,22.29,24.53c-0.37,15.02-9.44,24.77-22.91,24.63
		C1382.83,558.91,1374.22,549.33,1374.43,534.22z M1407.08,534.4c0.04-8.84-3.97-14.46-10.27-14.39
		c-6.02,0.07-10.29,6.36-10.02,14.76c0.28,8.62,4.3,13.96,10.38,13.79C1403.29,548.4,1407.04,543.04,1407.08,534.4z"/>
	<path d="M924.44,534.75c-0.17,14.71-9.65,24.67-23.13,24.29c-13.84-0.39-22.51-10.22-22.17-25.15
		c0.33-14.51,9.54-24.16,22.91-23.99C915.91,510.07,924.61,519.74,924.44,534.75z M891.57,533.48c0.41,2.67,0.58,4.99,1.15,7.22
		c1.16,4.58,3.88,7.73,8.91,7.82c5.28,0.1,8.76-3.09,9.38-7.87c0.62-4.79,0.2-9.89-0.8-14.64c-0.84-3.99-4.52-6.65-8.53-5.66
		c-3.05,0.76-6.08,3.24-8.13,5.76C892.04,527.98,892.13,531.14,891.57,533.48z"/>
	<path d="M857.53,624.2c4.39,0,8.11,0,12.77,0c0,7.65,0,15.29,0,22.92c0,7.52,0,15.04,0,22.43c-8.82,2.11-10.96,1.48-12.49-3.8
		c-4.58,4.3-9.56,6.96-16.04,5.33c-6.93-1.75-11.98-6.19-12.32-13.19c-0.54-11.07-0.14-22.19-0.14-33.63c3.92,0,7.61,0,12.05,0
		c0,7.69-0.01,15.36,0,23.03c0,2.16-0.6,4.64,0.26,6.39c1.22,2.48,3.23,5.68,5.47,6.23c2.31,0.56,6.11-0.99,7.79-2.9
		c1.78-2.02,2.43-5.54,2.55-8.44C857.75,640.68,857.53,632.78,857.53,624.2z"/>
	<path d="M1142.21,511.59c10.09-1.11,10.09-1.11,11.85,3.9c3.72-1.81,7.3-4.52,11.26-5.3c9.36-1.84,17.4,4.8,17.99,14.78
		c0.52,8.79,0.16,17.62,0.19,26.44c0.01,1.77,0,3.54,0,5.74c-4.22,0-8.07,0-12.83,0c0-5.01,0-10.14,0-15.27c0-4.5-0.04-9,0-13.49
		c0.03-3.89-1.59-6.78-5.45-7.61c-4.23-0.91-7.59,0.95-9.04,4.97c-1.02,2.81-1.43,5.94-1.52,8.95c-0.21,7.35-0.07,14.7-0.07,22.48
		c-4.01,0-7.7,0-12.37,0c0-7.41,0-15.06,0-22.71C1142.21,526.93,1142.21,519.39,1142.21,511.59z"/>
	<path d="M673.73,294.54c-2.5,2.3-4.86,4.46-6.11,5.61c-5.42-1.92-10.03-4.04-14.86-5c-1.61-0.32-3.81,2.29-5.74,3.56
		c1.55,1.25,2.92,3.04,4.69,3.63c4.07,1.36,8.42,1.9,12.51,3.22c6.86,2.22,10.05,6.32,10.21,12.34c0.16,5.87-3.44,11.27-9.57,13.72
		c-9.95,3.98-19.11,2.04-27.28-4.52c-5.12-4.11-4.95-5.96,0.11-9.73c1.14-0.85,2.33-1.63,3.88-2.71c3.6,5.08,7.89,9.27,14.54,8.32
		c2.1-0.3,3.97-2.25,5.95-3.44c-1.68-1.45-3.14-3.48-5.1-4.24c-4.16-1.62-8.7-2.26-12.85-3.88c-6.2-2.42-9.41-7.15-9.07-12.7
		c0.39-6.31,4.13-10.18,9.75-12.37C654.9,282.39,665.66,285.27,673.73,294.54z"/>
	<path d="M638.5,243.61c-41.76,0-83.52,0-125.28,0c-1.44,0-2.91,0.16-4.31-0.09c-0.87-0.16-1.63-0.95-2.44-1.46
		c0.83-0.69,1.55-1.64,2.5-1.99c0.96-0.35,2.13-0.1,3.21-0.1c84.06,0,168.12-0.01,252.17,0.07c2.26,0,4.52,0.98,6.77,1.51
		c-2.27,0.69-4.54,1.97-6.82,1.98C722.38,243.65,680.44,243.61,638.5,243.61z"/>
	<path d="M638.12,252.2c-41.01,0-82.01,0-123.02,0c-1.26,0-2.57,0.23-3.76-0.06c-1.67-0.4-3.24-1.18-4.86-1.8
		c1.62-0.61,3.23-1.74,4.85-1.74c85.07-0.09,170.14-0.09,255.21-0.01c1.53,0,3.05,0.97,4.58,1.49c-1.53,0.71-3.05,2.04-4.58,2.04
		C723.73,252.23,680.92,252.21,638.12,252.2z"/>
	<path d="M1248.56,540.27c3.24,1.74,6.07,3.26,8.85,4.75c-3.43,10.12-12.67,15.21-23.96,13.45c-10.95-1.7-18.03-10.58-18.43-23.11
		c-0.41-12.78,6.9-22.7,18.38-24.94c11.19-2.18,20.07,2.81,24.51,14.22c-3.2,1.29-6.42,2.59-9.86,3.98
		c-0.76-1.03-1.48-1.79-1.94-2.68c-2.04-3.9-5.15-5.92-9.61-5.46c-4.58,0.47-7.26,3.56-8.03,7.6c-0.75,3.96-0.81,8.23-0.21,12.21
		c0.66,4.4,3.77,7.38,8.32,8.05c4.32,0.63,7.66-1.26,9.95-4.98C1247.08,542.48,1247.68,541.61,1248.56,540.27z"/>
	<path d="M873.48,524.89c-3.08,1.2-6.21,2.41-9.59,3.72c-0.64-0.84-1.25-1.45-1.62-2.18c-2.16-4.31-5.47-6.67-10.41-5.86
		c-4.76,0.77-7.13,4.31-7.82,8.54c-0.59,3.63-0.44,7.52,0.16,11.16c0.74,4.43,3.71,7.43,8.28,8.11c4.35,0.65,7.61-1.46,10.02-4.98
		c0.6-0.87,1.14-1.79,1.91-3.02c3.13,1.63,6.09,3.17,9,4.69c-4.11,10.68-13.91,15.66-25.4,13.22c-11.1-2.35-17.59-12.36-16.83-25.95
		c0.68-12.25,8.47-20.9,20.1-22.3C861.73,508.78,870.66,514.61,873.48,524.89z"/>
	<path d="M1343.8,547.47c-0.74,10.59-1.79,10.89-10.49,11.39c-7.22,0.42-11.36-4.57-11.46-12.63c-0.09-8.03-0.02-16.06-0.02-24.33
		c-2.72-0.19-4.82-0.33-7.45-0.51c0-3.2,0-6.45,0-10c2.36-0.19,4.61-0.37,7.33-0.59c-1.66-9.49,6.86-12.02,12.23-17.37
		c0,5.72,0,11.44,0,17.44c3.49,0.15,6.13,0.27,9.23,0.41c0,3.27,0,6.39,0,10.16c-2.62,0-5.39,0-8.81,0c0,8.09-0.23,15.58,0.21,23.03
		c0.08,1.31,2.79,2.87,4.57,3.55C1340.42,548.49,1342.18,547.7,1343.8,547.47z"/>
	<path d="M572.39,521.86c0,7.67-0.17,14.82,0.06,21.97c0.14,4.27,1.22,4.59,9,3.79c0.88,7.76-1.07,10.5-8.02,11.26
		c-7.26,0.79-12.74-3.28-13.08-10.23c-0.33-6.81-0.11-13.64-0.13-20.47c0-1.94,0-3.88,0-6.15c-2.9-0.26-5.31-0.48-8.03-0.73
		c0-3.32,0-6.45,0-9.86c2.6-0.24,5.03-0.46,7.97-0.73c-1.95-9.55,6.73-12,11.96-17.38c0,5.73,0,11.46,0,17.51
		c3.55,0.17,6.34,0.31,9.47,0.46c0,3.39,0,6.51,0,10.03C578.74,521.49,575.95,521.65,572.39,521.86z"/>
	<path d="M506.23,258.83c0.73-0.56,1.46-1.61,2.18-1.61c87.37,0.08,174.75,0.24,262.12,0.47c0.23,0,0.47,1.16,0.92,2.36
		c-88.58,0-176.71,0-264.83,0C506.49,259.65,506.36,259.24,506.23,258.83z"/>
	<path d="M736.39,492.16c3.93,0,7.66,0,11.68,0c0,21.71,0,43.17,0,65.05c-3.74,0-7.41,0-11.68,0
		C736.39,535.81,736.39,514.28,736.39,492.16z"/>
	<path d="M642.5,379.61c0,22.18,0,43.4,0,65c-3.84,0-7.52,0-11.71,0c0-21.49,0-43.12,0-65C634.7,379.61,638.52,379.61,642.5,379.61z
		"/>
	<path d="M844.66,444.78c-4.53,0-8.08,0-11.98,0c0-15.37,0-30.52,0-45.97c3.17,0,6.15,0,9.24,0c0.57,1.93,1.12,3.81,1.81,6.19
		c1.44-1.64,2.44-3.49,3.99-4.36c2.36-1.33,5.18-2.93,7.66-2.72c5.29,0.45,6.61,3.91,3.89,8.47c-1.01,1.69-2.1,3.33-3.14,4.97
		c-7-3.12-10.04-1.63-10.91,6.29c-0.75,6.75-0.42,13.62-0.55,20.44C844.62,440.2,844.66,442.3,844.66,444.78z"/>
	<path d="M573.49,670.13c-4.42,0-8.1,0-12.12,0c0-15.31,0-30.3,0-45.75c2.96,0,5.9,0,9.26,0c0.55,1.75,1.17,3.74,1.49,4.76
		c3.57-1.99,7.05-4.74,10.98-5.79c2.04-0.55,4.89,1.88,7.88,3.19c-2.44,4.15-4.3,7.34-6.17,10.52c-6.3-3.67-9.64-2.5-10.59,4.61
		c-0.94,7.06-0.55,14.3-0.72,21.46C573.45,665.27,573.49,667.41,573.49,670.13z"/>
	<path d="M1043.16,411.77c-7.01-3.58-10.22-2.28-11.11,5.04c-0.86,7.09-0.53,14.32-0.7,21.48c-0.05,1.96-0.01,3.92-0.01,6.29
		c-4.1,0-7.9,0-12.01,0c0-15.28,0-30.42,0-45.81c3.32,0,6.31,0,9.31,0c0.54,2.02,1.05,3.92,1.57,5.86
		c8.49-7.63,12.02-8.93,15.74-4.87C1050.83,405.07,1043.26,407.4,1043.16,411.77z"/>
	<path d="M1193.9,557.11c0-15.35,0-30.33,0-45.66c4.13,0,7.93,0,12.03,0c0,15.22,0,30.2,0,45.66
		C1202.1,557.11,1198.29,557.11,1193.9,557.11z"/>
	<path d="M689.05,444.74c-4.09,0-7.79,0-11.79,0c0-15.39,0-30.53,0-45.94c3.96,0,7.66,0,11.79,0
		C689.05,413.99,689.05,429.15,689.05,444.74z"/>
	<path d="M1053.87,398.78c4.06,0,7.75,0,11.73,0c0,15.38,0,30.51,0,45.93c-3.94,0-7.61,0-11.73,0
		C1053.87,429.46,1053.87,414.34,1053.87,398.78z"/>
	<path d="M1364.86,557.42c-3.96,0-7.52,0-11.5,0c0-15.29,0-30.44,0-45.96c3.68,0,7.35,0,11.5,0
		C1364.86,526.61,1364.86,541.74,1364.86,557.42z"/>
	<path d="M878.74,444.82c-3.95,0-7.5,0-11.5,0c0-15.28,0-30.44,0-45.94c3.67,0,7.36,0,11.5,0
		C878.74,413.97,878.74,429.11,878.74,444.82z"/>
	<path d="M764.53,670.14c-4.08,0-7.75,0-11.76,0c0-15.32,0-30.33,0-45.78c3.78,0,7.58,0,11.76,0
		C764.53,639.47,764.53,654.47,764.53,670.14z"/>
	<path d="M553,373.38c-13.66,0-27.31,0.06-40.97-0.08c-1.86-0.02-3.7-1.06-5.55-1.63c1.77-0.64,3.54-1.83,5.31-1.84
		c27.5-0.12,54.99-0.13,82.49-0.01c1.77,0.01,3.54,1.27,5.31,1.95c-1.7,0.54-3.39,1.52-5.09,1.54
		C580.67,373.44,566.84,373.38,553,373.38z"/>
	<path d="M599.94,363.25c-1.25,0.55-2.51,1.58-3.76,1.59c-28.77,0.09-57.54,0.09-86.31,0.02c-1.22,0-2.45-0.85-3.67-1.31
		c0.11-0.53,0.23-1.06,0.34-1.59c30.98,0,61.96,0,92.94,0C599.63,362.39,599.79,362.82,599.94,363.25z"/>
	<path d="M599.9,354.76c-1.3,0.51-2.6,1.45-3.9,1.46c-28.56,0.09-57.12,0.09-85.69,0c-1.28,0-2.56-1.11-3.84-1.7
		c1.12-0.55,2.25-1.58,3.37-1.58c29.46-0.07,58.92-0.04,88.37,0c0.32,0,0.63,0.26,0.95,0.4C599.42,353.8,599.66,354.28,599.9,354.76
		z"/>
	<path d="M612.26,465.72c30.8,0,61.6,0,92.4,0c0.18,0.58,0.36,1.16,0.53,1.74c-1.52,0.46-3.04,1.3-4.57,1.32
		c-9.87,0.12-19.75,0.05-29.63,0.05c-18.14,0-36.27,0.05-54.41-0.06c-1.64-0.01-3.27-0.98-4.9-1.51
		C611.87,466.75,612.07,466.24,612.26,465.72z"/>
	<path d="M704.82,477.4c-1.71,0-3.42,0-5.13,0c-27.54,0-55.07-0.01-82.61-0.01c-1.08,0-2.2,0.14-3.22-0.11
		c-0.69-0.17-1.25-0.9-1.86-1.38c0.66-0.62,1.23-1.54,2.02-1.8c0.98-0.32,2.13-0.11,3.21-0.11c27.54-0.01,55.07-0.03,82.61,0.03
		c1.78,0,3.56,0.65,5.35,1C705.06,475.82,704.94,476.61,704.82,477.4z"/>
	<path d="M612.16,483.03c30.89,0,61.78,0,92.67,0c0.11,0.66,0.22,1.33,0.34,1.99c-1.84,0.32-3.67,0.91-5.51,0.92
		c-25.35,0.06-50.69,0.04-76.04,0.04c-2.88,0-5.76,0.14-8.62-0.1c-1.13-0.09-2.2-1.04-3.29-1.6
		C611.86,483.86,612.01,483.44,612.16,483.03z"/>
	<path d="M652.71,405.73c-3.94-7.61,6.56-6.48,6.46-11.64c-6.1-3.83-6.77-5.85-4.68-14.65c1.32-0.08,2.73-0.22,4.13-0.24
		c2.49-0.04,4.98-0.01,7.37-0.01C669.17,394.7,664.93,404.05,652.71,405.73z"/>
	<path d="M581.77,477.04c-25.06,0-50.11,0-75.17,0c-0.15-0.47-0.3-0.94-0.45-1.41c1.26-0.54,2.51-1.56,3.77-1.56
		c22.86-0.1,45.71-0.1,68.57,0c1.25,0.01,2.49,1.03,3.74,1.58C582.07,476.11,581.92,476.57,581.77,477.04z"/>
	<path d="M506.57,483.05c25,0,49.99,0,74.99,0c0.19,0.5,0.38,0.99,0.58,1.49c-1.51,0.48-3.01,1.36-4.52,1.36
		c-16.72,0.1-33.45,0.07-50.17,0.07c-5.75,0-11.51,0.09-17.26-0.07c-1.34-0.04-2.66-0.9-3.99-1.38
		C506.33,484.04,506.45,483.54,506.57,483.05z"/>
	<path d="M506.59,465.78c1.38-0.12,2.77-0.34,4.15-0.34c22.25-0.02,44.5-0.05,66.74,0.05c1.47,0.01,2.94,1.01,4.41,1.55
		c-1.42,0.61-2.83,1.74-4.25,1.75c-22.25,0.11-44.5,0.1-66.74,0.02c-1.58-0.01-3.16-0.78-4.74-1.2
		C506.3,467,506.45,466.39,506.59,465.78z"/>
	<path d="M805.04,483.02c-2.8,3.05-53.14,4.66-66.75,2.88c-1.04-0.14-1.97-1.04-2.96-1.58c0.15-0.43,0.3-0.86,0.46-1.29
		C758.58,483.02,781.38,483.02,805.04,483.02z"/>
	<path d="M735.84,465.8c1.38-0.12,2.77-0.35,4.15-0.36c19.95-0.03,39.9-0.05,59.85,0.03c1.6,0.01,3.19,0.76,4.79,1.16
		c-0.14,0.59-0.27,1.17-0.41,1.76c-1.2,0.15-2.4,0.44-3.6,0.44c-20.13,0.04-40.26,0.07-60.39-0.01c-1.6-0.01-3.19-0.8-4.78-1.22
		C735.58,467.01,735.71,466.4,735.84,465.8z"/>
	<path d="M735.49,475.26c1.4-0.43,2.8-1.23,4.2-1.23c20.3-0.07,40.59-0.07,60.89,0.04c1.25,0.01,2.49,1.13,3.73,1.73
		c-1.12,0.53-2.25,1.52-3.37,1.53c-21.01,0.09-42.03,0.06-63.05,0.03c-0.68,0-1.35-0.31-2.03-0.48
		C735.74,476.34,735.62,475.8,735.49,475.26z"/>
	<path d="M698.35,280.57c7.12-16.64,3.1-14.16,20.24-13.37C711.66,272.29,709.81,282.77,698.35,280.57z"/>
	<path d="M753.01,604.92c3.94,0,7.45,0,11.31,0c0,3.84,0,7.44,0,11.33c-3.84,0-7.34,0-11.31,0
		C753.01,612.58,753.01,608.99,753.01,604.92z"/>
	<path d="M677.42,379.53c3.76,0,7.25,0,11.25,0c0,3.61,0,7.21,0,11.16c-3.61,0-7.25,0-11.25,0
		C677.42,387.04,677.42,383.43,677.42,379.53z"/>
	<path d="M1065.37,390.77c-3.77,0-7.42,0-11.36,0c0-3.72,0-7.2,0-11.13c3.69,0,7.31,0,11.36,0
		C1065.37,383.28,1065.37,386.88,1065.37,390.77z"/>
	<path d="M878.77,379.66c0,3.81,0,7.3,0,11.08c-3.89,0-7.53,0-11.46,0c0-3.67,0-7.17,0-11.08
		C870.93,379.66,874.56,379.66,878.77,379.66z"/>
	<path d="M1194.25,492.28c4.1,0,7.61,0,11.51,0c0,3.69,0,7.17,0,11.08c-3.66,0-7.44,0-11.51,0
		C1194.25,499.77,1194.25,496.29,1194.25,492.28z"/>
	<path d="M1364.88,492.49c0,3.67,0,7.01,0,10.81c-3.78,0-7.42,0-11.46,0c0-3.39,0-6.88,0-10.81
		C1357.01,492.49,1360.66,492.49,1364.88,492.49z"/>
</g>
</svg>
