<?xml version="1.0" encoding="utf-8"?>
<!-- Generator: Adobe Illustrator 26.3.1, SVG Export Plug-In . SVG Version: 6.00 Build 0)  -->
<svg version="1.1" id="Calque_1" xmlns="http://www.w3.org/2000/svg" xmlns:xlink="http://www.w3.org/1999/xlink" x="0px" y="0px"
	 viewBox="0 0 1920 1080" style="enable-background:new 0 0 1920 1080;" xml:space="preserve">
<style type="text/css">
	.st0{fill:#FFFFFF;}
</style>
<g>
	<path class="st0" d="M1271.73,587.82c-215.23,0-430.47,0-645.73,0c0-95.83,0-191.67,0-287.55c215.22,0,430.48,0,645.73,0
		C1271.73,396.08,1271.73,491.95,1271.73,587.82z M761.33,409.6c0.59-1.69,0.93-3.16,1.58-4.48c1.67-3.39,3.4-6.75,5.25-10.03
		c0.78-1.38,2.78-1.82,3.99-1.34c2.06,0.8,4.11,1.65,6.24,2.21c1.92,0.51,4.04,0.99,5.51-1.05c0.72-1.01,1.28-2.14,1.98-3.34
		c-3.14-1.56-6.19-1.9-9.25-1.37c-4.33,0.76-8.6,1.89-12.93,2.66c-3.17,0.57-6.33,0.17-8.95-1.82c-3.53-2.68-4.15-6.39-3.13-10.52
		c1.39-5.62,7.43-7.53,11.74-3.73c1.05,0.93,1.24,1.94,0.51,2.93c-0.82,1.11-1.78,0.63-2.73-0.12c-1.69-1.33-3.6-1.39-4.93-0.31
		c-2.55,2.07-1.84,7.65,1.11,9.13c2.22,1.11,4.55,1.19,6.87,0.76c2.68-0.49,5.34-1.14,7.96-1.88c5.28-1.49,10.44-1.52,15.46,1.02
		c0.26-2.13-0.32-3.26-2.22-3.82c-1.48-0.44-3.06-0.82-4.59-0.79c-2.9,0.05-5.8,0.38-8.69,0.66c-1.06,0.1-1.75-0.25-2.13-1.2
		c-1.1-2.73-2.19-5.47-3.27-8.21c-0.8-2.04-0.33-2.93,1.86-3.05c3.69-0.21,7.39-0.46,11.07-0.3c3.84,0.17,7.59,0.92,9.54,4.97
		c0.25,0.51,0.79,0.97,1.31,1.24c0.39,0.2,1.03,0.24,1.42,0.05c1.93-0.95,2.02-3.54,0.15-4.64c-0.8-0.47-1.7-0.86-2.61-1.05
		c-2.39-0.5-4.85-0.75-7.21-1.36c-1.33-0.34-2.97-0.76-3.19-2.53c-0.14-1.19,1.32-2.11,3.59-2.37c6.91-0.79,13.32,0.2,18.95,4.75
		c3.06,2.48,6.31,4.84,10.23,5.87c1.97,0.52,4.03,0.69,6.2,1.04c-0.32,0.9-0.66,1.88-1.01,2.85c1.95,0,3.84,0,5.97,0
		c-1.36,1.73-2.52,3.29-3.77,4.77c-0.89,1.05-1.06,2.1-0.6,3.4c2.62,7.44,2.27,14.94,0.13,22.4c-1.82,6.32-4.88,12.05-8.5,17.52
		c-2.36,3.56-5.71,6.64-5.73,11.56c-2.8-1.65-3.87-4.1-4.48-6.96c-0.54,1.18-0.98,2.32-1.2,3.5c-0.68,3.67,0.15,7.14,1.91,10.33
		c2.38,4.33,5.03,8.4,10.09,10.19c2.98,1.06,6.14,2.1,8.6,3.97c2.51,1.92,4.38,1.27,6.59,0.09c0.25-0.13,0.5-0.26,0.75-0.37
		c8.07-3.75,10.38-10.11,6.65-18.16c-1.17-2.52-2.59-5.02-3.18-7.68c-1.33-6.02-0.3-11.94,2.3-17.46
		c3.35-7.11,8.12-13.28,13.35-19.11c3.74-4.16,7.36-8.43,9.2-13.84c1.2-3.53,1.03-6.95-1.49-9.94c-3.69-4.38-8.39-4.57-13.1-3.35
		c-0.43,0.11-0.84,0.72-1.05,1.19c-2.08,4.58-2.59,9.32-1.33,14.22c0.21,0.82,0.33,1.67,0.48,2.5c-0.12,0.06-0.23,0.12-0.35,0.18
		c-1.74-1.95-3.48-3.9-5.22-5.86c-0.16,0.03-0.31,0.07-0.47,0.1c0.25,3.66,0.56,7.32,0.74,10.98c0.14,2.83,0.41,5.7,0.08,8.48
		c-0.47,4.07-5.17,8.36-8.85,8.57c0.09-0.39,0.18-0.75,0.27-1.11c0.64-2.6,1.59-5.16,1.82-7.79c0.2-2.34,0.03-4.91-0.76-7.09
		c-1.97-5.39-1.56-10.61,0.1-15.91c2.36-7.53,6.93-12.85,14.92-14.39c5.77-1.11,11.15-0.05,15.47,4.32
		c4.21,4.26,5.43,9.4,4.24,15.23c3.17-4.24,5.98-8.58,4.98-14.41c1.77,3.22,2.41,7.73,2.32,13.87c-0.05,3.62-1.49,6.48-4.13,8.79
		c-1.02,0.9-2.23,1.58-3.35,2.36c1.6,0.12,3.16,0.07,4.62-0.33c3.65-1.01,6.71-2.97,9-6.09c-2.75,9.08-6.66,17.36-15.26,22.87
		c4.37,2.05,7.74,0.31,11.11-1.91c-0.58,1.61-1.2,3.14-1.96,4.6c-2.12,4.12-4.91,7.6-9.38,9.35c-2.8,1.1-5.63,2.14-8.46,3.18
		c-5.34,1.97-8.28,5.96-9.59,11.33c-0.73,3-0.85,5.91-0.4,9.07c1.01,7.15-2.34,12.53-8.2,16.39c-2.12,1.4-4.45,2.47-6.75,3.72
		c1.56,2.62,1.92,5.61,1.89,8.64c-0.03,3.25-0.21,6.49-0.39,9.73c-0.1,1.86,0.86,3.12,2.26,4.04c1.24,0.82,2.51,0.29,3.54-0.57
		c2.27-1.89,4.48-3.86,6.73-5.78c1.01-0.86,2.04-1.7,3.06-2.55c-0.02,3.19,1.2,5.4,3.24,7.28c1.52,1.4,3.12,2.76,4.42,4.35
		c1.13,1.39,2.13,3,2.73,4.68c1.12,3.13,0.23,6.26-0.5,9.38c-0.78,3.31-1.3,6.62,1.31,9.5c0.29,0.32,0.34,0.87,0.65,1.71
		c-2.69,0.73-5.22,1.33-7.69,2.11c-1.43,0.45-3.07-0.16-4.31,1.35c-2.37,2.9-4.97,5.61-7.37,8.28c15.47,0,31.28,0,47.16,0
		c0-58.64,0-117.2,0-175.81c-67.08,0-134.06,0-201.03,0c0,58.68,0,117.23,0,175.9c0.73,0,1.34,0,1.94,0
		c11.27,0,22.53-0.04,33.8,0.05c1.58,0.01,2.41-0.51,2.82-1.92c0.55-1.91,1.81-2.99,3.73-3.4c0.81-0.17,1.68-0.36,2.36-0.8
		c0.77-0.49,2.13-0.75,1.47-2.73c-2.27,1.16-4.52,2.06-6.51,3.38c-2.81,1.87-5.7,1.87-8.15-0.57c-1.24-1.24-2.41-1.12-3.76-0.43
		c-0.54,0.28-1.11,0.52-1.66,0.78c-0.12-0.11-0.24-0.22-0.36-0.34c0.31-0.8,0.51-1.66,0.95-2.37c1.24-2.01,3.25-2.94,5.38-3.74
		c1.11-0.41,2.28-1,3.07-1.84c2.86-3.04,6.5-3.81,10.38-3.66c3.91,0.15,7.09,2.48,10.57,3.92c2.34,0.97,4.81,1.76,7.3,2.24
		c1.69,0.33,3.39-0.46,4.24-2.08c0.73-1.4,0.24-2.82-0.69-4.07c-2.18-2.94-5.19-4.86-8.31-6.6c-7.97-4.43-12.76-10.74-11.9-20.29
		c0.42-4.7,2.11-8.87,6.48-11.27c4.54-2.5,9.52-2.82,14.51-1.92c5.46,0.98,10.55,3.16,15.59,5.41c4.73,2.11,9.38,4.46,14.55,5.29
		c2.75,0.44,5.54,0.59,8.22-0.69c2.55-1.22,3.22-3.16,1.7-5.57c-1.62-2.58-4.23-3.85-6.98-4.57c-7.64-1.99-13.48-6.16-17.27-13.18
		c-1.05-1.95-2.24-3.88-3.68-5.55c-2.28-2.64-5.2-3.07-8.33-1.61c-2.33,1.09-3.82,4.01-3.39,7.06c0.28,1.98,0.86,3.91,1.29,5.86
		c0.1,0.46,0.17,0.92,0.27,1.46c-2.27-2.48-4.23-4.91-6.48-7.03c-5.55-5.2-14.73-6.43-20.77-1.64c-1.71,1.36-3.87,2.24-6.72,2.11
		c1.66-1.21,2.26-2.43,1.84-4.02c-0.49-1.83-2.8-3.66-4.73-3.72c-2.74-0.09-4.72,1.47-6.62,3.14c-2.33,2.04-4.93,3.01-8.02,2.27
		c-1.45-0.35-2.87-0.85-4.06,0.56c-0.06,0.07-0.31-0.03-0.62-0.06c-0.44-2.58,0.28-4.8,1.85-6.84c0.47-0.61,1.07-1.28,1.17-1.99
		c0.31-2.22,1.52-3.63,3.44-4.57c0.19-0.09,0.44-0.27,0.48-0.45c0.1-0.5,0.1-1.01,0.14-1.52c-0.48,0.06-0.99,0.03-1.42,0.21
		c-0.33,0.14-0.54,0.55-0.83,0.81c-1.53,1.39-2.71,1.63-4.31,0.29c-2.39-1.99-4.79-2.41-7.52-0.89c-0.12,0.06-0.3,0.01-0.96,0.01
		c0.64-1.2,0.95-2.41,1.72-3.1c1.21-1.08,2.97-1.58,4.07-2.73c2.49-2.63,5.56-2.43,8.69-2.32c0.42,0.01,0.85-0.04,1.28-0.06
		c0.04-0.13,0.08-0.26,0.13-0.39c-0.42-0.2-0.82-0.52-1.25-0.57c-1.33-0.14-2.68-0.28-4.01-0.24c-2.41,0.07-5.07-1.97-7.02,1
		c-1.12-1.41-1.12-2.14,0.03-3.13c0.71-0.61,1.72-0.92,2.32-1.61c2.32-2.71,5.39-3.65,8.76-3.93c4.22-0.36,8.13,0.16,11.18,3.59
		c1.1,1.24,2.4,2.36,3.75,3.34c3.62,2.61,8.34,2.07,10.67-1.41c2.96-4.42,3.44-9.27,1.34-14.19c-1.21-2.84-3.8-2.98-5.56-0.41
		c-0.56,0.82-0.87,1.79-1.31,2.69c-0.32,0.66-0.66,1.32-1.06,2.13c-0.36-0.37-0.6-0.51-0.63-0.68c-0.18-0.92-0.26-1.87-0.47-2.79
		c-1.2-5.22-0.38-10.12,1.75-15c1.02-2.34,1.32-5.02,1.7-7.59c0.2-1.36-0.44-2.46-1.89-3.19c-1.98-0.99-3.84-0.88-5.82-0.25
		c-2.74,0.87-5.55,1.38-7.96-0.67c-1.54-1.32-3.07-1.67-4.93-1.03c-0.58,0.2-1.19,0.29-1.8,0.37c-0.29,0.04-0.61-0.07-0.91-0.11
		c0.08-0.35,0.08-0.74,0.24-1.03c0.19-0.33,0.49-0.61,0.8-0.86c3.28-2.62,7.29-3.73,11.14-5.03c2.02-0.68,4.45-0.12,7.02-0.12
		c-0.28-0.45-0.46-1.06-0.84-1.25c-0.44-0.22-1.08-0.12-1.62-0.06c-2.67,0.29-5,0.08-6.1-3c-0.47-1.31-1.78-1.79-3.19-1.69
		c-0.59,0.04-1.18,0.16-1.77,0.24c-0.08-0.14-0.16-0.29-0.24-0.43c0.63-0.4,1.21-0.99,1.9-1.17c1.99-0.53,4.09-0.68,6.02-1.37
		c2.23-0.79,3.82-0.07,5.49,1.28c1.4,1.13,3,2,4.52,2.99c1.1-1.79,0.88-2.35-0.76-2.64c-1.55-0.27-3.26-0.44-3.62-2.35
		c-0.33-1.77-1.43-2.49-2.98-2.98c-0.82-0.26-1.55-0.79-2.32-1.2c0.01-0.2,0.02-0.39,0.04-0.59c2.5,0.25,4.22-0.81,5.43-2.8
		c0.15-0.24,0.56-0.37,0.87-0.46c1.23-0.37,2.46-0.73,3.7-1.06c2.47-0.65,4.77-0.33,6.82,1.26c1.36,1.06,2.77,2.07,4.02,3.25
		c8.5,8.01,11.59,18.29,11.98,29.56c0.26,7.51,0.32,15.05-2,22.84c0.93-0.61,1.54-0.94,2.06-1.37c4.24-3.42,8.97-5.5,14.51-5.75
		c4.07-0.18,8.14-0.56,12.2-0.99c1.19-0.13,2.42-0.55,3.44-1.16c0.58-0.34,1.16-1.4,1.04-2c-0.13-0.69-0.94-1.54-1.63-1.76
		c-1.08-0.34-2.31-0.27-3.46-0.23c-1.1,0.04-2.2,0.27-3.64,0.47c1.22-0.95,2.14-1.68,3.07-2.4c-0.16-0.2-0.33-0.4-0.49-0.6
		C767.38,406.21,764.64,408.15,761.33,409.6z M1216.46,529.96c0-33.4,0-66.6,0-99.79c-6.51,0-12.87,0-19.42,0
		c0,20.17,0,40.24,0,60.66c-0.39-0.53-0.56-0.73-0.7-0.96c-5.25-8.09-10.49-16.18-15.73-24.28c-7.39-11.43-14.79-22.85-22.14-34.31
		c-0.64-1-1.33-1.24-2.43-1.23c-4.54,0.06-9.08,0.02-13.62,0.02c-0.7,0-1.41,0-2.1,0c0,33.41,0,66.57,0,99.77
		c6.51,0,12.92,0,19.48,0c0-20.25,0-40.4,0-60.9c0.36,0.45,0.49,0.59,0.6,0.76c3.22,4.96,6.45,9.91,9.65,14.87
		c4.92,7.64,9.82,15.29,14.74,22.92c4.66,7.22,9.32,14.44,14.02,21.63c0.25,0.38,0.82,0.79,1.24,0.79
		C1205.47,529.98,1210.91,529.96,1216.46,529.96z M1046.39,478.67c0.26,7.31,0.32,13.41,0.75,19.5c0.47,6.84,2.3,13.32,6.73,18.75
		c6.3,7.72,14.31,12.36,24.34,13.46c10.54,1.15,20.22-0.74,28.68-7.43c4.96-3.92,8.72-8.71,10.8-14.78
		c1.95-5.68,2.57-11.59,2.6-17.49c0.05-9.73-0.27-19.47-0.62-29.21c-0.17-4.72-1.32-9.33-3.58-13.48
		c-5.1-9.35-12.89-15.42-23.32-17.69c-10.83-2.35-21.21-1.18-30.66,5.11c-8.6,5.73-13.64,13.74-14.67,23.99
		C1046.75,466.19,1046.67,473.04,1046.39,478.67z M1009.37,529.88c0-0.75,0-1.31,0-1.87c0-12.61-0.01-25.22,0.02-37.84
		c0-0.75,0.09-1.59,0.43-2.25c2.84-5.62,5.76-11.2,8.62-16.81c6.08-11.91,12.14-23.84,18.2-35.76c0.85-1.67,1.66-3.35,2.48-5.02
		c-0.3-0.15-0.39-0.24-0.48-0.24c-6.56-0.01-13.11-0.04-19.67,0.02c-0.43,0-1.05,0.52-1.26,0.95c-1.59,3.31-3.1,6.66-4.62,10.01
		c-3.27,7.2-6.52,14.41-9.8,21.61c-1.12,2.45-2.29,4.88-3.56,7.57c-2.06-4.49-4.01-8.73-5.96-12.97c-3.99-8.65-8-17.29-11.97-25.94
		c-0.43-0.94-0.97-1.3-2.03-1.29c-6.22,0.05-12.44,0.02-18.66,0.02c-0.3,0-0.6,0.04-1.02,0.07c0.27,0.68,0.44,1.21,0.69,1.7
		c3.59,6.99,7.23,13.96,10.79,20.96c5.93,11.66,11.83,23.34,17.7,35.04c0.38,0.76,0.62,1.67,0.62,2.51
		c0.04,12.56,0.03,25.11,0.03,37.67c0,0.6,0,1.2,0,1.86C996.46,529.88,1002.82,529.88,1009.37,529.88z M965.77,512.08
		c-15.07,0-30.01,0-45.16,0c0-27.51,0-54.88,0-82.24c-6.61,0-13.01,0-19.38,0c0,33.3,0,66.45,0,99.66c21.55,0,42.99,0,64.54,0
		C965.77,523.73,965.77,518.04,965.77,512.08z M763.07,529.25c0.05,0.2,0.09,0.4,0.14,0.6c13.87,0,27.74,0,41.07,0
		c0.73-1.23,1.11-2.29,1.83-3c1.1-1.08,2.45-1.9,3.69-2.85c0.41-0.31,0.79-0.65,1.34-1.11c-1.57-1-2.41,0.11-3.26,0.7
		c-1.37,0.95-2.55,2.17-3.93,3.09c-1.64,1.08-3.32,0.81-4.25-0.75c-0.98-1.64-2.25-1.58-3.73-1.1c-0.77,0.25-1.52,0.55-2.77,1.01
		c0.33-1.1,0.34-1.9,0.75-2.36c1.06-1.2,2.23-2.32,3.45-3.36c1.65-1.4,3.3-2.84,5.11-4.01c1.79-1.16,3.68-2.51,5.69-2.87
		c3.37-0.61,6.77,0.19,10.04,1.25c2.16,0.7,4.25,1.75,6.64,1.34c1.75-0.3,3.2-0.94,4.29-2.52c1.71-2.49-0.37-7-4.14-7.55
		c-4.41-0.64-8.83-1.15-13.25-1.7c-3.29-0.41-6.49-1.11-9.32-2.94c-3.97-2.57-6.5-6.17-7.56-11.2c-0.97,0.76-1.77,1.39-2.57,2.02
		c-2.68,2.11-5.47,3.88-8.87,4.82c-4.64,1.29-9.21,0.56-13.83,0.42c-2.13-0.07-4.47,0.03-6.36,0.86c-3.05,1.34-3.46,4.31-3.3,7.41
		c0.19,3.56,1.77,4.98,5.53,5.34c2.78,0.27,5.57,0.52,8.31,1.03c2.05,0.38,3.85,1.37,4.72,3.57c-4.95,0.55-7.3,1.91-7.04,3.87
		c2.28-0.13,4.56-0.48,6.81-0.34c2.38,0.15,4.38,1.36,5.93,3.34c-1.42,0.19-2.84,0.05-3.94,0.58c-2.74,1.32-5.51,2.71-7.94,4.51
		c-2.26,1.67-4.66,1.47-7.13,1.57C764.49,528.97,763.78,529.14,763.07,529.25z M1128.42,353.81c0,19.16,0,37.91,0,56.69
		c6.95,0,13.79,0.21,20.61-0.1c2.87-0.13,5.87-0.97,8.51-2.16c6.75-3.06,8.98-9.2,9.53-15.97c0.43-5.29,0.32-10.64,0.33-15.96
		c0-3.64-0.32-7.26-1.58-10.72c-2.37-6.48-7.11-10.47-13.83-11.08C1144.21,353.79,1136.35,354,1128.42,353.81z M1091.74,379.2
		c-8.35,0-16.55,0-24.72,0c0-6.7,0-13.18,0-19.82c9.66,0,19.22,0,28.79,0c0-1.87,0-3.56,0-5.26c-11.69,0-23.26,0-34.85,0
		c0,18.83,0,37.54,0,56.27c11.69,0,23.29,0,34.87,0c0-1.81,0-3.47,0-5.32c-9.65,0-19.2,0-28.83,0c0-6.89,0-13.58,0-20.48
		c8.29,0,16.49,0,24.73,0C1091.74,382.78,1091.74,381.16,1091.74,379.2z M1181.74,354.08c0,18.9,0,37.64,0,56.38
		c11.65,0,23.17,0,34.77,0c0-1.79,0-3.5,0-5.4c-9.64,0-19.18,0-28.76,0c0-6.9,0-13.59,0-20.46c8.2,0,16.3,0,24.41,0
		c0-1.83,0-3.49,0-5.33c-8.18,0-16.27,0-24.39,0c0-6.71,0-13.23,0-19.93c9.67,0,19.22,0,28.74,0c0-1.85,0-3.51,0-5.25
		C1204.89,354.08,1193.37,354.08,1181.74,354.08z M896.92,354.04c1.72,5.27,3.38,10.4,5.07,15.52c2.23,6.78,4.49,13.54,6.71,20.32
		c2.13,6.51,4.22,13.04,6.39,19.54c0.15,0.46,0.75,1.03,1.19,1.07c1.37,0.14,2.77,0.05,4.07,0.05
		c6.21-18.91,12.37-37.64,18.55-56.47c-2.21,0-4.26,0-6.36,0c-4.83,15.04-9.65,30.05-14.47,45.05c-0.11-0.01-0.22-0.02-0.34-0.03
		c-4.83-15.01-9.65-30.02-14.48-45.04C901.21,354.04,899.25,354.04,896.92,354.04z M1004.94,405.04c-9.68,0-19.23,0-28.92,0
		c0-17.1,0-34,0-50.91c-2.07,0-3.99,0-5.86,0c0,18.87,0,37.62,0,56.32c11.66,0,23.19,0,34.78,0
		C1004.94,408.68,1004.94,407.02,1004.94,405.04z M1050.32,405.08c-9.61,0-19.11,0-28.83,0c0-17.11,0-34.05,0-50.98
		c-2.11,0-3.98,0-5.91,0c0,18.84,0,37.58,0,56.35c11.62,0,23.14,0,34.74,0C1050.32,408.7,1050.32,407.04,1050.32,405.08z
		 M947.87,354.06c0,18.91,0,37.65,0,56.37c2.02,0,3.9,0,5.73,0c0-18.85,0-37.59,0-56.37C951.65,354.06,949.82,354.06,947.87,354.06z
		"/>
	<path d="M761.33,409.6c3.31-1.45,6.05-3.39,9.43-3.42c0.16,0.2,0.33,0.4,0.49,0.6c-0.93,0.72-1.85,1.45-3.07,2.4
		c1.44-0.19,2.53-0.43,3.64-0.47c1.16-0.04,2.39-0.1,3.46,0.23c0.69,0.21,1.49,1.07,1.63,1.76c0.12,0.6-0.46,1.66-1.04,2
		c-1.03,0.61-2.26,1.03-3.44,1.16c-4.06,0.43-8.12,0.81-12.2,0.99c-5.53,0.25-10.26,2.32-14.51,5.75c-0.53,0.43-1.13,0.75-2.06,1.37
		c2.32-7.79,2.26-15.33,2-22.84c-0.39-11.28-3.48-21.55-11.98-29.56c-1.25-1.18-2.66-2.19-4.02-3.25c-2.05-1.6-4.35-1.92-6.82-1.26
		c-1.24,0.33-2.47,0.69-3.7,1.06c-0.31,0.1-0.72,0.22-0.87,0.46c-1.21,2-2.93,3.05-5.43,2.8c-0.01,0.2-0.02,0.39-0.04,0.59
		c0.77,0.41,1.5,0.94,2.32,1.2c1.55,0.49,2.65,1.21,2.98,2.98c0.36,1.92,2.08,2.08,3.62,2.35c1.64,0.29,1.86,0.85,0.76,2.64
		c-1.52-0.99-3.12-1.86-4.52-2.99c-1.67-1.35-3.26-2.07-5.49-1.28c-1.92,0.68-4.03,0.84-6.02,1.37c-0.69,0.18-1.27,0.77-1.9,1.17
		c0.08,0.14,0.16,0.29,0.24,0.43c0.59-0.08,1.18-0.2,1.77-0.24c1.41-0.1,2.72,0.38,3.19,1.69c1.1,3.08,3.43,3.3,6.1,3
		c0.54-0.06,1.17-0.16,1.62,0.06c0.38,0.19,0.56,0.8,0.84,1.25c-2.57,0-5-0.56-7.02,0.12c-3.84,1.29-7.86,2.41-11.14,5.03
		c-0.3,0.24-0.61,0.52-0.8,0.86c-0.17,0.3-0.17,0.69-0.24,1.03c0.3,0.04,0.62,0.15,0.91,0.11c0.61-0.08,1.22-0.18,1.8-0.37
		c1.86-0.63,3.38-0.28,4.93,1.03c2.41,2.06,5.22,1.54,7.96,0.67c1.98-0.63,3.84-0.75,5.82,0.25c1.46,0.73,2.09,1.82,1.89,3.19
		c-0.38,2.57-0.68,5.25-1.7,7.59c-2.12,4.89-2.95,9.79-1.75,15c0.21,0.92,0.29,1.86,0.47,2.79c0.03,0.17,0.27,0.31,0.63,0.68
		c0.4-0.81,0.74-1.47,1.06-2.13c0.44-0.9,0.75-1.88,1.31-2.69c1.76-2.57,4.35-2.44,5.56,0.41c2.1,4.92,1.62,9.77-1.34,14.19
		c-2.33,3.47-7.05,4.02-10.67,1.41c-1.35-0.98-2.64-2.09-3.75-3.34c-3.05-3.43-6.96-3.95-11.18-3.59c-3.37,0.29-6.44,1.22-8.76,3.93
		c-0.59,0.69-1.6,1-2.32,1.61c-1.15,0.99-1.15,1.72-0.03,3.13c1.95-2.97,4.61-0.93,7.02-1c1.33-0.04,2.68,0.1,4.01,0.24
		c0.43,0.05,0.84,0.37,1.25,0.57c-0.04,0.13-0.08,0.26-0.13,0.39c-0.43,0.02-0.85,0.07-1.28,0.06c-3.13-0.11-6.2-0.31-8.69,2.32
		c-1.1,1.16-2.86,1.65-4.07,2.73c-0.77,0.69-1.08,1.9-1.72,3.1c0.66,0,0.85,0.06,0.96-0.01c2.73-1.52,5.13-1.1,7.52,0.89
		c1.6,1.33,2.78,1.1,4.31-0.29c0.29-0.26,0.5-0.67,0.83-0.81c0.43-0.18,0.94-0.15,1.42-0.21c-0.04,0.51-0.04,1.02-0.14,1.52
		c-0.04,0.18-0.29,0.35-0.48,0.45c-1.92,0.94-3.13,2.36-3.44,4.57c-0.1,0.7-0.7,1.38-1.17,1.99c-1.57,2.03-2.29,4.26-1.85,6.84
		c0.32,0.04,0.57,0.13,0.62,0.06c1.2-1.41,2.62-0.9,4.06-0.56c3.08,0.74,5.69-0.23,8.02-2.27c1.9-1.67,3.89-3.22,6.62-3.14
		c1.92,0.06,4.24,1.9,4.73,3.72c0.42,1.59-0.18,2.81-1.84,4.02c2.85,0.13,5.01-0.75,6.72-2.11c6.04-4.79,15.22-3.57,20.77,1.64
		c2.26,2.11,4.21,4.55,6.48,7.03c-0.1-0.54-0.17-1-0.27-1.46c-0.43-1.95-1.01-3.89-1.29-5.86c-0.43-3.05,1.06-5.98,3.39-7.06
		c3.13-1.46,6.05-1.03,8.33,1.61c1.44,1.67,2.63,3.6,3.68,5.55c3.78,7.02,9.63,11.19,17.27,13.18c2.75,0.71,5.35,1.99,6.98,4.57
		c1.52,2.41,0.86,4.35-1.7,5.57c-2.68,1.28-5.47,1.13-8.22,0.69c-5.17-0.83-9.82-3.19-14.55-5.29c-5.05-2.25-10.14-4.43-15.59-5.41
		c-4.99-0.9-9.97-0.58-14.51,1.92c-4.37,2.41-6.06,6.58-6.48,11.27c-0.86,9.55,3.93,15.86,11.9,20.29c3.13,1.74,6.13,3.65,8.31,6.6
		c0.93,1.25,1.42,2.67,0.69,4.07c-0.85,1.63-2.55,2.41-4.24,2.08c-2.49-0.48-4.95-1.27-7.3-2.24c-3.48-1.44-6.66-3.77-10.57-3.92
		c-3.89-0.15-7.52,0.62-10.38,3.66c-0.79,0.84-1.97,1.43-3.07,1.84c-2.14,0.8-4.14,1.73-5.38,3.74c-0.44,0.71-0.64,1.58-0.95,2.37
		c0.12,0.11,0.24,0.22,0.36,0.34c0.55-0.26,1.12-0.5,1.66-0.78c1.35-0.69,2.53-0.81,3.76,0.43c2.45,2.45,5.34,2.44,8.15,0.57
		c1.98-1.32,4.24-2.22,6.51-3.38c0.66,1.99-0.7,2.24-1.47,2.73c-0.68,0.44-1.55,0.62-2.36,0.8c-1.93,0.41-3.18,1.49-3.73,3.4
		c-0.41,1.41-1.24,1.93-2.82,1.92c-11.27-0.09-22.53-0.05-33.8-0.05c-0.61,0-1.22,0-1.94,0c0-58.67,0-117.21,0-175.9
		c66.98,0,133.96,0,201.03,0c0,58.61,0,117.16,0,175.81c-15.88,0-31.69,0-47.16,0c2.4-2.67,5-5.38,7.37-8.28
		c1.24-1.51,2.89-0.9,4.31-1.35c2.47-0.78,5.01-1.38,7.69-2.11c-0.31-0.84-0.36-1.38-0.65-1.71c-2.61-2.88-2.09-6.2-1.31-9.5
		c0.73-3.11,1.61-6.25,0.5-9.38c-0.6-1.68-1.6-3.28-2.73-4.68c-1.29-1.6-2.9-2.95-4.42-4.35c-2.04-1.88-3.26-4.09-3.24-7.28
		c-1.02,0.85-2.05,1.69-3.06,2.55c-2.25,1.92-4.46,3.88-6.73,5.78c-1.04,0.86-2.3,1.39-3.54,0.57c-1.39-0.92-2.36-2.18-2.26-4.04
		c0.18-3.24,0.36-6.49,0.39-9.73c0.03-3.03-0.33-6.02-1.89-8.64c2.3-1.26,4.63-2.33,6.75-3.72c5.86-3.86,9.21-9.24,8.2-16.39
		c-0.45-3.15-0.33-6.07,0.4-9.07c1.31-5.37,4.24-9.37,9.59-11.33c2.83-1.04,5.65-2.07,8.46-3.18c4.47-1.76,7.26-5.24,9.38-9.35
		c0.75-1.47,1.38-3,1.96-4.6c-3.38,2.22-6.74,3.95-11.11,1.91c8.6-5.51,12.51-13.79,15.26-22.87c-2.29,3.11-5.36,5.08-9,6.09
		c-1.46,0.4-3.03,0.44-4.62,0.33c1.12-0.78,2.33-1.47,3.35-2.36c2.64-2.31,4.08-5.17,4.13-8.79c0.09-6.14-0.55-10.65-2.32-13.87
		c1.01,5.83-1.8,10.17-4.98,14.41c1.2-5.83-0.03-10.97-4.24-15.23c-4.32-4.37-9.69-5.43-15.47-4.32c-8,1.54-12.56,6.86-14.92,14.39
		c-1.66,5.3-2.07,10.51-0.1,15.91c0.79,2.18,0.96,4.75,0.76,7.09c-0.22,2.63-1.18,5.2-1.82,7.79c-0.09,0.36-0.17,0.71-0.27,1.11
		c3.68-0.22,8.38-4.51,8.85-8.57c0.33-2.79,0.05-5.66-0.08-8.48c-0.18-3.66-0.49-7.32-0.74-10.98c0.16-0.03,0.31-0.07,0.47-0.1
		c1.74,1.95,3.48,3.9,5.22,5.86c0.12-0.06,0.23-0.12,0.35-0.18c-0.16-0.83-0.27-1.68-0.48-2.5c-1.27-4.9-0.75-9.64,1.33-14.22
		c0.21-0.47,0.62-1.08,1.05-1.19c4.71-1.22,9.41-1.04,13.1,3.35c2.51,2.99,2.69,6.4,1.49,9.94c-1.84,5.41-5.46,9.68-9.2,13.84
		c-5.24,5.83-10.01,12-13.35,19.11c-2.6,5.53-3.63,11.44-2.3,17.46c0.59,2.67,2.01,5.16,3.18,7.68c3.73,8.05,1.42,14.4-6.65,18.16
		c-0.25,0.12-0.5,0.24-0.75,0.37c-2.21,1.17-4.07,1.82-6.59-0.09c-2.45-1.87-5.62-2.91-8.6-3.97c-5.06-1.79-7.7-5.86-10.09-10.19
		c-1.76-3.2-2.59-6.66-1.91-10.33c0.22-1.18,0.66-2.32,1.2-3.5c0.61,2.86,1.68,5.32,4.48,6.96c0.02-4.91,3.37-7.99,5.73-11.56
		c3.62-5.47,6.68-11.2,8.5-17.52c2.15-7.46,2.49-14.95-0.13-22.4c-0.46-1.31-0.29-2.35,0.6-3.4c1.25-1.48,2.41-3.04,3.77-4.77
		c-2.13,0-4.02,0-5.97,0c0.35-0.98,0.69-1.95,1.01-2.85c-2.17-0.35-4.23-0.53-6.2-1.04c-3.91-1.03-7.16-3.39-10.23-5.87
		c-5.63-4.55-12.05-5.54-18.95-4.75c-2.27,0.26-3.74,1.18-3.59,2.37c0.21,1.77,1.85,2.19,3.19,2.53c2.36,0.61,4.82,0.85,7.21,1.36
		c0.91,0.19,1.81,0.58,2.61,1.05c1.87,1.1,1.78,3.69-0.15,4.64c-0.38,0.19-1.03,0.16-1.42-0.05c-0.52-0.27-1.06-0.72-1.31-1.24
		c-1.95-4.05-5.7-4.8-9.54-4.97c-3.68-0.16-7.39,0.09-11.07,0.3c-2.2,0.12-2.66,1-1.86,3.05c1.07,2.74,2.17,5.48,3.27,8.21
		c0.38,0.95,1.07,1.3,2.13,1.2c2.89-0.28,5.79-0.61,8.69-0.66c1.53-0.03,3.11,0.36,4.59,0.79c1.89,0.56,2.48,1.69,2.22,3.82
		c-5.02-2.54-10.18-2.5-15.46-1.02c-2.62,0.74-5.28,1.38-7.96,1.88c-2.33,0.43-4.66,0.36-6.87-0.76c-2.95-1.48-3.66-7.05-1.11-9.13
		c1.33-1.09,3.24-1.02,4.93,0.31c0.95,0.75,1.92,1.23,2.73,0.12c0.73-0.99,0.54-2-0.51-2.93c-4.31-3.8-10.35-1.89-11.74,3.73
		c-1.02,4.14-0.4,7.84,3.13,10.52c2.62,1.99,5.78,2.39,8.95,1.82c4.33-0.78,8.6-1.91,12.93-2.66c3.06-0.53,6.11-0.19,9.25,1.37
		c-0.7,1.2-1.26,2.33-1.98,3.34c-1.47,2.05-3.59,1.56-5.51,1.05c-2.13-0.56-4.18-1.41-6.24-2.21c-1.21-0.47-3.21-0.04-3.99,1.34
		c-1.86,3.29-3.59,6.65-5.25,10.03C762.26,406.44,761.91,407.91,761.33,409.6z"/>
	<path d="M1216.46,529.96c-5.55,0-10.98,0.02-16.42-0.04c-0.42,0-0.99-0.41-1.24-0.79c-4.7-7.2-9.37-14.41-14.02-21.63
		c-4.92-7.63-9.82-15.29-14.74-22.92c-3.2-4.97-6.43-9.92-9.65-14.87c-0.11-0.16-0.24-0.31-0.6-0.76c0,20.51,0,40.65,0,60.9
		c-6.56,0-12.97,0-19.48,0c0-33.2,0-66.36,0-99.77c0.7,0,1.4,0,2.1,0c4.54,0,9.08,0.03,13.62-0.02c1.1-0.01,1.79,0.23,2.43,1.23
		c7.34,11.46,14.74,22.88,22.14,34.31c5.24,8.1,10.49,16.19,15.73,24.28c0.14,0.22,0.31,0.43,0.7,0.96c0-20.42,0-40.5,0-60.66
		c6.54,0,12.91,0,19.42,0C1216.46,463.35,1216.46,496.56,1216.46,529.96z"/>
	<path d="M1046.39,478.67c0.29-5.63,0.36-12.48,1.04-19.26c1.03-10.26,6.07-18.27,14.67-23.99c9.45-6.29,19.83-7.46,30.66-5.11
		c10.43,2.27,18.23,8.34,23.32,17.69c2.26,4.15,3.41,8.76,3.58,13.48c0.35,9.73,0.67,19.47,0.62,29.21
		c-0.03,5.9-0.65,11.8-2.6,17.49c-2.08,6.06-5.84,10.85-10.8,14.78c-8.46,6.69-18.14,8.58-28.68,7.43
		c-10.03-1.09-18.04-5.74-24.34-13.46c-4.43-5.43-6.25-11.91-6.73-18.75C1046.71,492.08,1046.65,485.97,1046.39,478.67z
		 M1101.2,480.08c-0.23-0.01-0.45-0.01-0.68-0.02c0-4.48,0.21-8.97-0.07-13.43c-0.21-3.37-0.53-6.9-1.72-10.01
		c-3.75-9.86-15.65-12.63-24.28-7.65c-5.63,3.25-7.52,8.66-7.84,14.68c-0.35,6.65-0.48,13.33-0.38,19.99
		c0.09,5.58,0.3,11.2,1.08,16.71c1.52,10.69,12.55,15.05,21.81,12.07c6.36-2.04,9.95-6.76,10.71-13.28
		C1100.57,492.83,1100.76,486.44,1101.2,480.08z"/>
	<path d="M1009.37,529.88c-6.55,0-12.91,0-19.46,0c0-0.66,0-1.26,0-1.86c0-12.56,0.01-25.11-0.03-37.67c0-0.84-0.25-1.76-0.62-2.51
		c-5.87-11.69-11.77-23.37-17.7-35.04c-3.56-7-7.2-13.97-10.79-20.96c-0.25-0.49-0.41-1.02-0.69-1.7c0.42-0.03,0.72-0.07,1.02-0.07
		c6.22,0,12.44,0.03,18.66-0.02c1.06-0.01,1.6,0.35,2.03,1.29c3.97,8.66,7.98,17.3,11.97,25.94c1.96,4.24,3.9,8.48,5.96,12.97
		c1.26-2.68,2.44-5.11,3.56-7.57c3.28-7.2,6.53-14.41,9.8-21.61c1.52-3.35,3.04-6.69,4.62-10.01c0.21-0.43,0.83-0.95,1.26-0.95
		c6.56-0.05,13.11-0.03,19.67-0.02c0.09,0,0.18,0.09,0.48,0.24c-0.83,1.67-1.64,3.36-2.48,5.02c-6.06,11.92-12.12,23.85-18.2,35.76
		c-2.86,5.61-5.78,11.19-8.62,16.81c-0.33,0.66-0.42,1.49-0.43,2.25c-0.02,12.61-0.02,25.22-0.02,37.84
		C1009.37,528.57,1009.37,529.13,1009.37,529.88z"/>
	<path d="M965.77,512.08c0,5.96,0,11.65,0,17.42c-21.55,0-42.98,0-64.54,0c0-33.21,0-66.37,0-99.66c6.36,0,12.76,0,19.38,0
		c0,27.36,0,54.73,0,82.24C935.76,512.08,950.7,512.08,965.77,512.08z"/>
	<path d="M763.07,529.25c0.72-0.1,1.43-0.27,2.15-0.3c2.47-0.1,4.87,0.1,7.13-1.57c2.43-1.8,5.2-3.19,7.94-4.51
		c1.1-0.53,2.52-0.39,3.94-0.58c-1.55-1.98-3.55-3.19-5.93-3.34c-2.25-0.14-4.53,0.2-6.81,0.34c-0.26-1.95,2.09-3.32,7.04-3.87
		c-0.87-2.2-2.67-3.19-4.72-3.57c-2.74-0.5-5.53-0.76-8.31-1.03c-3.76-0.36-5.35-1.78-5.53-5.34c-0.16-3.1,0.25-6.07,3.3-7.41
		c1.89-0.83,4.24-0.93,6.36-0.86c4.62,0.14,9.19,0.87,13.83-0.42c3.4-0.94,6.19-2.71,8.87-4.82c0.8-0.63,1.6-1.26,2.57-2.02
		c1.06,5.03,3.59,8.63,7.56,11.2c2.83,1.83,6.03,2.53,9.32,2.94c4.42,0.55,8.84,1.06,13.25,1.7c3.77,0.54,5.84,5.06,4.14,7.55
		c-1.08,1.58-2.53,2.23-4.29,2.52c-2.39,0.4-4.48-0.64-6.64-1.34c-3.28-1.06-6.68-1.86-10.04-1.25c-2.01,0.36-3.91,1.72-5.69,2.87
		c-1.81,1.17-3.46,2.6-5.11,4.01c-1.22,1.04-2.4,2.16-3.45,3.36c-0.4,0.46-0.42,1.26-0.75,2.36c1.25-0.46,2.01-0.76,2.77-1.01
		c1.48-0.49,2.75-0.55,3.73,1.1c0.93,1.56,2.61,1.83,4.25,0.75c1.39-0.92,2.57-2.14,3.93-3.09c0.85-0.59,1.68-1.7,3.26-0.7
		c-0.55,0.45-0.94,0.79-1.34,1.11c-1.24,0.94-2.58,1.77-3.69,2.85c-0.72,0.71-1.1,1.77-1.83,3c-13.33,0-27.2,0-41.07,0
		C763.16,529.64,763.11,529.44,763.07,529.25z"/>
	<path d="M1128.42,353.81c7.93,0.19,15.79-0.02,23.57,0.69c6.71,0.61,11.46,4.6,13.83,11.08c1.26,3.46,1.58,7.08,1.58,10.72
		c0,5.32,0.1,10.66-0.33,15.96c-0.55,6.78-2.78,12.92-9.53,15.97c-2.64,1.19-5.64,2.03-8.51,2.16c-6.82,0.31-13.66,0.1-20.61,0.1
		C1128.42,391.71,1128.42,372.97,1128.42,353.81z M1134.41,359.23c-0.08,0.61-0.14,0.87-0.14,1.14c0,14.46,0.01,28.92-0.02,43.38
		c0,1.2,0.5,1.38,1.51,1.36c4.65-0.12,9.32,0.06,13.93-0.35c4.3-0.39,7.84-2.42,9.74-6.6c1.61-3.55,1.94-7.34,1.91-11.14
		c-0.06-6.03,0.58-12.08-0.89-18.06c-1.25-5.09-4.57-8.29-9.45-9C1145.57,359.17,1139.98,359.43,1134.41,359.23z"/>
	<path d="M1091.74,379.2c0,1.95,0,3.57,0,5.39c-8.24,0-16.44,0-24.73,0c0,6.9,0,13.59,0,20.48c9.63,0,19.18,0,28.83,0
		c0,1.85,0,3.51,0,5.32c-11.58,0-23.19,0-34.87,0c0-18.74,0-37.44,0-56.27c11.59,0,23.15,0,34.85,0c0,1.69,0,3.39,0,5.26
		c-9.57,0-19.13,0-28.79,0c0,6.65,0,13.12,0,19.82C1075.2,379.2,1083.39,379.2,1091.74,379.2z"/>
	<path d="M1181.74,354.08c11.63,0,23.15,0,34.77,0c0,1.74,0,3.41,0,5.25c-9.52,0-19.07,0-28.74,0c0,6.7,0,13.22,0,19.93
		c8.12,0,16.21,0,24.39,0c0,1.84,0,3.5,0,5.33c-8.11,0-16.21,0-24.41,0c0,6.87,0,13.57,0,20.46c9.57,0,19.12,0,28.76,0
		c0,1.9,0,3.61,0,5.4c-11.59,0-23.12,0-34.77,0C1181.74,391.72,1181.74,372.97,1181.74,354.08z"/>
	<path d="M896.92,354.04c2.33,0,4.28,0,6.34,0c4.83,15.02,9.65,30.03,14.48,45.04c0.11,0.01,0.22,0.02,0.34,0.03
		c4.82-15,9.64-30.01,14.47-45.05c2.09,0,4.15,0,6.36,0c-6.19,18.84-12.34,37.56-18.55,56.47c-1.3,0-2.7,0.09-4.07-0.05
		c-0.44-0.04-1.04-0.62-1.19-1.07c-2.17-6.5-4.25-13.03-6.39-19.54c-2.22-6.78-4.48-13.55-6.71-20.32
		C900.31,364.44,898.64,359.31,896.92,354.04z"/>
	<path d="M1004.94,405.04c0,1.99,0,3.65,0,5.41c-11.59,0-23.11,0-34.78,0c0-18.7,0-37.44,0-56.32c1.87,0,3.79,0,5.86,0
		c0,16.91,0,33.81,0,50.91C985.72,405.04,995.27,405.04,1004.94,405.04z"/>
	<path d="M1050.32,405.08c0,1.97,0,3.63,0,5.37c-11.6,0-23.11,0-34.74,0c0-18.77,0-37.51,0-56.35c1.93,0,3.8,0,5.91,0
		c0,16.93,0,33.87,0,50.98C1031.21,405.08,1040.71,405.08,1050.32,405.08z"/>
	<path d="M947.87,354.06c1.95,0,3.78,0,5.73,0c0,18.78,0,37.52,0,56.37c-1.83,0-3.71,0-5.73,0
		C947.87,391.71,947.87,372.97,947.87,354.06z"/>
	<path class="st0" d="M1101.2,480.08c-0.43,6.36-0.62,12.75-1.36,19.07c-0.76,6.51-4.36,11.23-10.71,13.28
		c-9.25,2.97-20.29-1.39-21.81-12.07c-0.78-5.51-1-11.13-1.08-16.71c-0.11-6.66,0.03-13.34,0.38-19.99
		c0.32-6.02,2.21-11.43,7.84-14.68c8.63-4.99,20.54-2.22,24.28,7.65c1.18,3.11,1.5,6.64,1.72,10.01c0.28,4.46,0.07,8.95,0.07,13.43
		C1100.75,480.07,1100.97,480.07,1101.2,480.08z"/>
	<path class="st0" d="M1134.41,359.23c5.57,0.2,11.16-0.06,16.59,0.73c4.88,0.71,8.2,3.91,9.45,9c1.47,5.98,0.83,12.03,0.89,18.06
		c0.04,3.81-0.29,7.6-1.91,11.14c-1.9,4.18-5.44,6.22-9.74,6.6c-4.62,0.41-9.29,0.23-13.93,0.35c-1.01,0.03-1.51-0.16-1.51-1.36
		c0.04-14.46,0.02-28.92,0.02-43.38C1134.27,360.1,1134.34,359.83,1134.41,359.23z"/>
</g>
</svg>
