<?xml version="1.0" encoding="utf-8"?>
<!-- Generator: Adobe Illustrator 26.3.1, SVG Export Plug-In . SVG Version: 6.00 Build 0)  -->
<svg version="1.1" id="Calque_1" xmlns="http://www.w3.org/2000/svg" xmlns:xlink="http://www.w3.org/1999/xlink" x="0px" y="0px"
	 viewBox="0 0 1920 1080" style="enable-background:new 0 0 1920 1080;" xml:space="preserve">
<style type="text/css">
	.st0{fill:#FFFFFF;}
</style>
<g>
	<rect x="683.44" y="234" class="st0" width="504.03" height="504.03"/>
	<g>
		<path d="M715.05,512.8c0-6.03,0-12.06,0-18.08c5.74,0,11.48,0,17.36,0c0-5.84,0-11.23,0-17.39c-5.88,0-11.62,0-17.36,0
			c0-5.8,0-11.59,0-17.39c5.72-0.3,11.44-0.59,17.24-0.9c0-5.67,0-11.25,0-17.19c-5.92,0-11.58,0-17.24,0c0-11.82,0-23.65,0-35.47
			c0.92-0.1,1.84-0.3,2.75-0.3c16.11-0.02,32.22-0.02,48.33,0c0.76,0,1.52,0.23,2.63,0.41c0,11.8,0,23.44,0,35.08
			c5.91,0,11.42,0,17.31,0c0-5.92,0-11.65,0-17.75c6.1,0,11.83,0,18.01,0c0-6.08,0-11.8,0-17.51c12.1,0,23.75,0,35.79,0
			c0,5.19-0.09,10.15,0.04,15.1c0.06,2.26-0.7,3.01-2.99,2.98c-9.62-0.11-19.24-0.05-28.86-0.04c-1.22,0-2.45,0.1-3.87,0.16
			c0,6.02,0,11.68,0,17.34c-5.76,0-11.51,0-17.36,0c0,6.08,0,11.67,0,17.19c5.85,0,11.44,0,17.24,0c0-5.98,0-11.64,0-17.31
			c11.79,0,23.58,0,35.77,0c0,6.03,0,11.65,0,17.37c6,0,11.6,0,17.62,0c0-5.85,0-11.46,0-17.1c18.09,0,35.76,0,53.78,0
			c0,5.85,0,11.47,0,17.09c5.96,0,11.56,0,17.13,0c0-11.68,0-23.09,0-34.75c-5.19,0-10.15-0.06-15.12,0.03
			c-1.93,0.03-2.7-0.62-2.65-2.6c0.1-3.94,0.22-7.89-0.03-11.82c-0.19-3,0.65-4.03,3.81-3.96c9.38,0.21,18.77,0.07,28.16,0.08
			c1.12,0,2.23,0.13,3.7,0.23c0,5.88,0,11.51,0,17.27c5.98,0,11.58,0,17.57,0c0-17.79,0-35.35,0-53.24c5.23,0,10.08,0.14,14.92-0.05
			c2.65-0.11,3.35,0.84,3.32,3.39c-0.13,9.5-0.06,19.01-0.04,28.51c0,1.21,0.12,2.43,0.19,3.66c5.91,0,11.42,0,17.34,0
			c0-17.77,0-35.31,0-52.78c6.24,0,12.07,0,18.17,0c0,17.76,0,35.21,0,53.1c23.73,0,47.19,0,70.97,0c0,6.06,0,11.68,0,17.79
			c6.14,0,11.97,0,18.16,0c0,6.22,0,11.94,0,17.59c5.91,0,11.42,0,17.3,0c0-11.87,0-23.51,0-35.16c12.28,0,24.19,0,36.1,0
			c0,17.62,0,35.24,0,52.86c-6.02,0.31-12.05,0.62-18.54,0.95c0-6.47,0-12.2,0-18.07c-5.95,0-11.45,0-17.5,0c0,5.99,0,11.8,0,17.94
			c-6.16,0-11.78,0-17.71,0c0,5.98,0,11.6,0,17.26c-6.15,0-11.97,0-18.1,0c0-17.76,0-35.2,0-52.81c-11.85,0-23.37,0-35.06,0
			c0,5.76,0,11.36,0,17.35c5.94,0,11.66,0,17.39,0c0,6.21,0,12.03,0,18.22c-6.05,0-11.78,0-17.4,0c0,11.7,0,23.01,0,34.69
			c5.92,0,11.65,0,17.77,0c0,17.91,0,35.46,0,53.39c6.01,0,11.62,0,17.61,0c0,12.01,0,23.64,0,35.31c6,0,11.6,0,17.38,0
			c0-4.99,0.14-9.74-0.06-14.47c-0.11-2.66,0.82-3.4,3.38-3.3c4.81,0.18,9.63,0.05,14.77,0.05c0-6.1,0-11.72,0-17.3
			c6.16,0,11.99,0,18.15,0c0,5.91,0,11.53,0,17.3c2.31,0,4.27-0.06,6.23,0.01c3.9,0.15,7.79,0.39,11.69,0.59
			c0,11.82,0,23.65,0,35.47c-6,0-12.01,0-18.45,0c0-11.92,0-23.55,0-35.25c-6.04,0-11.62,0-17.6,0c0,5.87,0,11.49,0,17.47
			c-6.01,0-11.64,0-17.66,0c0,6.09,0,11.82,0,17.88c-6.14,0-11.87,0-17.61,0c0,5.96,0,11.55,0,17.51c6,0,11.73,0,17.85,0
			c0,6.08,0,11.8,0,17.56c5.91,0,11.42,0,17.41,0c0-6,0-11.82,0-17.5c6.23,0,11.97,0,18.09,0c0,11.87,0,23.5,0,35.29
			c2.35,0,4.32-0.06,6.28,0.01c3.9,0.15,7.79,0.39,11.69,0.59c0,5.8,0,11.59,0,17.39c-11.97,0-23.94,0-36.22,0
			c0-5.89,0-11.51,0-17.19c-11.92,0-23.52,0-35.18,0c0,11.65,0,23.05,0,34.98c5.98,0,11.8,0,18.12,0
			c-0.34,6.49-0.66,12.43-0.97,18.38c-5.8,0-11.59,0-17.39,0c0-5.97,0-11.95,0-17.88c-12.18,0-23.71,0-35.47,0
			c0,6.1,0,11.99,0,17.88c-6.03,0-12.06,0-18.08,0c-0.06-12.08-0.12-24.15-0.17-36.23c11.77,0,23.54,0,35.44,0
			c0-11.88,0-23.48,0-35.09c-11.72,0-23.21,0-35.02,0c0,1.86,0.01,3.46,0,5.05c-0.1,10.05-0.2,20.1-0.3,30.15
			c-5.72,0-11.44,0-17.37,0c0,11.17,0.02,21.65-0.03,32.14c-0.01,1.33-0.41,2.66-0.62,3.98c-5.8,0-11.59,0-17.39,0
			c0-11.86,0-23.72,0-35.73c-6.12,0-11.62,0-17.54,0c0,1.43,0,2.66,0,3.9c0,9.26,0.02,18.51-0.02,27.77
			c-0.01,1.36-0.34,2.71-0.52,4.06c-5.8,0-11.59,0-17.39,0c-0.13-0.68-0.36-1.36-0.36-2.04c-0.02-10.78-0.01-21.56,0.01-32.34
			c0-0.54,0.25-1.08,0.44-1.88c5.71,0,11.35,0,17.1,0c0-23.74,0-47.18,0-70.91c-5.86,0-11.5,0-17.26,0c0-12.12,0-23.97,0-36.03
			c5.41,0,10.5,0.09,15.59-0.04c2.53-0.06,2.42,1.46,2.41,3.17c-0.02,8.35-0.01,16.69-0.01,25.04c0,2.4,0,4.79,0,7.18
			c6.04,0,11.62,0,17.54,0c0-17.77,0-35.22,0-53.03c5.96,0,11.58,0,17.6,0c0-6.11,0-11.84,0-17.93c6.14,0,11.87,0,17.61,0
			c0-5.98,0-11.58,0-17.14c-11.79,0-23.32,0-35.25,0c0,5.94,0,11.67,0,17.79c-5.99,0-11.61,0-17.6,0c0,6.02,0,11.64,0,17.27
			c-6.23,0-12.07,0-18,0c0-6.01,0-11.75,0-17.91c5.93,0,11.65,0,17.76,0c0-17.83,0-35.26,0-52.62c6.16,0,11.9,0,18.07,0
			c0,5.81,0,11.41,0,16.93c11.96,0,23.5,0,35.41,0c0-11.76,0-23.28,0-35.17c5.99,0,11.62,0,17.25,0c0-5.96,0-11.54,0-17.48
			c-5.93,0-11.55,0-17.49,0c0-5.99,0-11.61,0-17.19c-5.94,0-11.54,0-17.45,0c0,11.82,0,23.36,0,35.08c-12.06,0-23.82,0-35.98,0
			c0-11.82,0-23.45,0-35.1c-6.02,0-11.61,0-17.56,0c0,5.88,0,11.49,0,17.4c-5.98,0-11.61,0-17.68,0c0,11.94,0,23.57,0,35.73
			c-11.92,0-23.41,0-34.82,0c0,11.83,0,23.14,0,34.82c5.87,0,11.5,0,17.49,0c0,5.33-0.09,10.29,0.04,15.25
			c0.06,2.3-0.77,3.02-3.03,2.95c-4.82-0.14-9.64-0.04-14.46-0.04c0,6.05,0,11.64,0,17.59c11.7,0,23.11,0,34.48,0
			c0,29.85,0,59.33,0,88.79c-5.9,0-11.51,0-17.45,0c0-5.87,0-11.49,0-17.06c-5.94,0-11.54,0-17.49,0c0,5.9,0,11.52,0,17.12
			c-6.12,0-11.87,0-17.97,0c0-5.81,0-11.43,0-17.46c-12,0-23.64,0-35.68,0c0-5.26,0.13-10.11-0.05-14.94
			c-0.1-2.58,0.7-3.43,3.33-3.37c7.88,0.15,15.76,0.05,23.64,0.05c2.87,0,5.74,0,9.03,0c0,6.14,0,11.87,0,17.63
			c5.94,0,11.46,0,17.44,0c0-5.87,0-11.57,0-17.7c6.17,0,11.9,0,17.7,0c0-11.86,0-23.29,0-34.84c-5.77,0-11.37,0-17.31,0
			c0,5.83,0,11.45,0,17.25c-18.01,0-35.67,0-53.85,0c0-5.9,0-11.6,0-17.63c-23.98,0-47.45,0-71.3,0c0-6.09,0-11.82,0-17.87
			c-23.88,0-47.39,0-70.89,0c0-6.03,0-12.06,0-18.08c17.6,0,35.21,0,53.28,0c0-5.94,0-11.67,0-17.49c6.31,0,12.15,0,18.31,0
			c0,5.92,0,11.55,0,17.27c5.92,0,11.52,0,17.18,0c0-17.46,0-34.68,0-52.07c-5.78,0-11.38,0-17.39,0c0,5.76,0,11.26,0,16.75
			c-6.24,0-12.08,0-18.33,0c0-5.8,0-11.29,0-16.75c-5.93,0-11.44,0-17.31,0c0,11.67,0,23.09,0,34.9
			C738.63,512.8,726.84,512.8,715.05,512.8z M892.93,495.23c-23.72,0-47.15,0-70.59,0c0,5.8,0,11.32,0,17.21c5.82,0,11.45,0,17.5,0
			c0,5.78,0.09,11.2-0.12,16.6c-0.02,0.59-1.73,1.58-2.68,1.6c-6.49,0.14-12.98,0.08-19.47,0.08c-4.36,0-8.72,0-13.1,0
			c0,6.04,0,11.63,0,17.29c17.65,0,35,0,52.92,0c0-5.94,0-11.76,0-17.95c12.19,0,23.82,0,35.54,0
			C892.93,518.32,892.93,506.98,892.93,495.23z M1070.26,619.12c0-17.77,0-35.19,0-52.57c-17.65,0-35.06,0-52.45,0
			c0,17.65,0,35.06,0,52.57C1035.38,619.12,1052.71,619.12,1070.26,619.12z M857.81,477.13c11.8,0,23.33,0,34.99,0
			c0-5.79,0-11.38,0-17.05c-11.77,0-23.3,0-34.99,0C857.81,465.78,857.81,471.29,857.81,477.13z M910.33,565.61
			c0-5.94,0-11.51,0-17.08c-5.78,0-11.27,0-16.91,0c0,5.78,0,11.36,0,17.08C899.14,565.61,904.64,565.61,910.33,565.61z
			 M822.28,477.05c5.94,0,11.53,0,17.1,0c0-5.79,0-11.3,0-16.94c-5.77,0-11.37,0-17.1,0C822.28,465.82,822.28,471.34,822.28,477.05z
			 M999.74,672.58c5.9,0,11.41,0,17.06,0c0-5.77,0-11.35,0-17c-5.8,0-11.39,0-17.06,0C999.74,661.32,999.74,666.83,999.74,672.58z"
			/>
		<path class="st0" d="M804.19,441.85c0-5.66,0-11.32,0-17.34c1.42-0.06,2.64-0.16,3.87-0.16c9.62-0.01,19.24-0.07,28.86,0.04
			c2.29,0.03,3.05-0.72,2.99-2.98c-0.12-4.95-0.04-9.91-0.04-15.1c-12.04,0-23.69,0-35.79,0c0,5.71,0,11.43,0,17.51
			c-6.18,0-11.91,0-18.01,0c0,6.1,0,11.83,0,17.75c-5.89,0-11.4,0-17.31,0c0-11.64,0-23.27,0-35.08c-1.11-0.18-1.87-0.41-2.63-0.41
			c-16.11-0.02-32.22-0.02-48.33,0c-0.92,0-1.84,0.19-2.75,0.3c0-6.03,0-12.06,0-18.08c1.26,0.1,2.53,0.3,3.79,0.3
			c39.02,0.02,78.03,0.01,117.05,0c1.23,0,2.45-0.12,3.97-0.2c0-1.49,0-2.63,0-3.77c0-39.02,0-78.03-0.01-117.05
			c0-1.26-0.2-2.53-0.3-3.79c6.03,0,12.06,0,18.08,0c-0.04,11.69-0.08,23.38-0.1,35.07c0,0.17,0.3,0.34,0.8,0.87
			c5.27,0,10.9,0,16.82,0c0,6,0,11.64,0,17.37c6.14,0,11.97,0,17.85,0c0-5.99,0-11.74,0-17.83c-5.79,0-11.41,0-17.2,0
			c0-5.95,0-11.54,0-17.25c11.63,0,23.04,0,34.8,0c0,5.01-0.11,9.85,0.09,14.68c0.04,0.97,1.2,2.69,1.9,2.72
			c5.28,0.23,10.58,0.13,15.97,0.13c0-12.22,0-23.99,0-35.77c11.82,0,23.65,0,35.47,0c0,5.94,0,11.88,0,17.77c5.98,0,11.8,0,18.17,0
			c-0.27-6.12-0.52-11.94-0.78-17.77c17.85,0,35.7,0,53.56,0c0,41.52,0,83.04,0,124.65c1.44,0.07,2.36,0.16,3.27,0.16
			c39.49,0.01,78.98,0.01,118.48-0.01c1.15,0,2.3-0.2,3.45-0.3c0,6.03,0,12.06,0,18.08c-11.91,0-23.81,0-36.1,0
			c0,11.65,0,23.29,0,35.16c-5.88,0-11.39,0-17.3,0c0-5.65,0-11.38,0-17.59c-6.19,0-12.01,0-18.16,0c0-6.11,0-11.74,0-17.79
			c-23.78,0-47.23,0-70.97,0c0-17.89,0-35.34,0-53.1c-6.1,0-11.93,0-18.17,0c0,17.47,0,35.01,0,52.78c-5.92,0-11.43,0-17.34,0
			c-0.07-1.23-0.18-2.44-0.19-3.66c-0.02-9.5-0.09-19.01,0.04-28.51c0.03-2.55-0.66-3.49-3.32-3.39c-4.84,0.19-9.69,0.05-14.92,0.05
			c0,17.89,0,35.45,0,53.24c-5.99,0-11.6,0-17.57,0c0-5.76,0-11.38,0-17.27c-1.46-0.09-2.58-0.23-3.7-0.23
			c-9.39-0.02-18.78,0.12-28.16-0.08c-3.16-0.07-4,0.96-3.81,3.96c0.25,3.92,0.13,7.88,0.03,11.82c-0.05,1.98,0.72,2.64,2.65,2.6
			c4.96-0.09,9.93-0.03,15.12-0.03c0,11.66,0,23.07,0,34.75c-5.57,0-11.16,0-17.13,0c0-5.62,0-11.24,0-17.09
			c-18.02,0-35.68,0-53.78,0c0,5.64,0,11.24,0,17.1c-6.02,0-11.61,0-17.62,0c0-5.73,0-11.35,0-17.37c-12.19,0-23.98,0-35.77,0
			L804.19,441.85z M946.03,317.03c-1.82,0-3.08,0-4.34,0c-9.27,0-18.54,0.09-27.81-0.05c-2.63-0.04-3.35,0.81-3.32,3.38
			c0.14,9.5,0.06,19.01,0.05,28.51c0,1.22-0.11,2.44-0.17,3.6c-11.8,0-23.21,0-35.02,0c0-5.99,0-11.73,0-17.51
			c-6.16,0-11.9,0-17.76,0c-0.13,0.72-0.31,1.27-0.31,1.82c-0.02,28.28,0,56.55-0.07,84.83c-0.01,2.52,1.19,2.76,3.21,2.75
			c9.97-0.07,19.93-0.02,29.9-0.04c0.87,0,1.74-0.19,2.84-0.32c0-11.83,0-23.39,0-35.5c6.06,0,11.89,0,18.09,0
			c0-12.17,0-23.8,0-35.4c5.92,0,11.43,0,17.31,0c0,11.85,0,23.49,0,35.25c5.98,0,11.59,0,17.63,0c0-11.87,0-23.51,0-35.53
			c12.07,0,23.71,0,35.78,0c0-12.01,0-23.63,0-35.6c6.05,0,11.67,0,17.24,0c0-6.18,0-12.01,0-17.76c-6.04,0-11.78,0-17.81,0
			c0,5.86,0,11.49,0,17.34c-5.91,0-11.53,0-17.55,0c0-5.92,0-11.65,0-17.37c-6.15,0-11.89,0-17.91,0
			C946.03,305.28,946.03,310.92,946.03,317.03z"/>
		<path class="st0" d="M715.05,548.27c23.51,0,47.01,0,70.89,0c0,6.05,0,11.78,0,17.87c23.84,0,47.31,0,71.3,0
			c0,6.04,0,11.74,0,17.63c18.18,0,35.84,0,53.85,0c0-5.8,0-11.42,0-17.25c5.94,0,11.54,0,17.31,0c0,11.55,0,22.98,0,34.84
			c-5.8,0-11.53,0-17.7,0c0,6.13,0,11.84,0,17.7c-5.98,0-11.5,0-17.44,0c0-5.75,0-11.48,0-17.63c-3.28,0-6.16,0-9.03,0
			c-7.88,0-15.77,0.1-23.64-0.05c-2.63-0.05-3.42,0.8-3.33,3.37c0.18,4.84,0.05,9.68,0.05,14.94c12.04,0,23.68,0,35.68,0
			c0,6.03,0,11.65,0,17.46c6.11,0,11.86,0,17.97,0c0-5.6,0-11.22,0-17.12c5.95,0,11.55,0,17.49,0c0,5.57,0,11.19,0,17.06
			c5.94,0,11.55,0,17.45,0c0-29.46,0-58.94,0-88.79c-11.36,0-22.78,0-34.48,0c0-5.95,0-11.54,0-17.59c4.81,0,9.64-0.1,14.46,0.04
			c2.26,0.07,3.09-0.65,3.03-2.95c-0.13-4.96-0.04-9.92-0.04-15.25c-5.99,0-11.62,0-17.49,0c0-11.68,0-22.99,0-34.82
			c11.41,0,22.9,0,34.82,0c0-12.16,0-23.79,0-35.73c6.07,0,11.7,0,17.68,0c0-5.91,0-11.53,0-17.4c5.94,0,11.54,0,17.56,0
			c0,11.65,0,23.28,0,35.1c12.17,0,23.92,0,35.98,0c0-11.73,0-23.27,0-35.08c5.9,0,11.5,0,17.45,0c0,5.58,0,11.2,0,17.19
			c5.94,0,11.56,0,17.49,0c0,5.94,0,11.52,0,17.48c-5.63,0-11.26,0-17.25,0c0,11.89,0,23.41,0,35.17c-11.91,0-23.44,0-35.41,0
			c0-5.52,0-11.12,0-16.93c-6.17,0-11.92,0-18.07,0c0,17.37,0,34.79,0,52.62c-6.11,0-11.83,0-17.76,0c0,6.16,0,11.9,0,17.91
			c5.93,0,11.76,0,18,0c0-5.64,0-11.26,0-17.27c5.99,0,11.61,0,17.6,0c0-6.12,0-11.85,0-17.79c11.92,0,23.46,0,35.25,0
			c0,5.56,0,11.16,0,17.14c-5.73,0-11.47,0-17.61,0c0,6.08,0,11.82,0,17.93c-6.02,0-11.64,0-17.6,0c0,17.82,0,35.26,0,53.03
			c-5.92,0-11.5,0-17.54,0c0-2.39,0-4.78,0-7.18c0-8.35-0.01-16.69,0.01-25.04c0-1.71,0.12-3.23-2.41-3.17
			c-5.09,0.13-10.18,0.04-15.59,0.04c0,12.06,0,23.91,0,36.03c5.76,0,11.4,0,17.26,0c0,23.72,0,47.17,0,70.91
			c-5.75,0-11.39,0-17.1,0c-0.19,0.8-0.44,1.34-0.44,1.88c-0.03,10.78-0.03,21.56-0.01,32.34c0,0.68,0.23,1.36,0.36,2.04
			c-6.03,0-12.06,0-18.08,0c0-11.98,0-23.95,0-36.29c-5.79,0-11.28,0-17.07,0c0-5.09-0.12-9.82,0.05-14.54
			c0.09-2.53-0.62-3.5-3.3-3.38c-4.85,0.21-9.72,0.06-14.58,0.06c-5.87,0-11.75,0-17.82,0c0,6.21,0,12.04,0,18.27
			c5.82,0,11.43,0,17.48,0c0,6.11,0,11.83,0,17.89c6.17,0,11.9,0,17.87,0c0,6.24,0,12.12,0,18c-11.82,0-23.65,0-35.47,0
			c0-6,0-12.01,0-18.54c-5.89,0-11.59,0-17.51,0c0-1.78,0-3.04,0-4.3c0-9.38,0.05-18.75-0.07-28.13c-0.01-1.06-0.99-3-1.58-3.03
			c-5.39-0.24-10.8-0.14-16.63-0.14c0,1.78,0,3.14,0,4.5c0,14.01-0.02,28.01,0.01,42.02c0.01,2.54,0.2,5.07,0.3,7.61
			c-6.03,0-12.06,0-18.08,0c0.1-1.38,0.3-2.76,0.3-4.14c0.02-39.03,0.01-78.06,0.01-117.09c0-1.23-0.12-2.46-0.19-3.97
			c-41.75,0-83.18,0-124.61,0C715.05,571.92,715.05,560.09,715.05,548.27z M963.81,512.7c0-6.14,0-11.95,0-17.73
			c-6.05,0-11.86,0-17.55,0c0,6.08,0,11.89,0,17.73C952.2,512.7,957.85,512.7,963.81,512.7z"/>
		<path class="st0" d="M1160.2,566.35c-3.9-0.2-7.79-0.43-11.69-0.59c-1.96-0.08-3.92-0.01-6.23-0.01c0-5.77,0-11.39,0-17.3
			c-6.16,0-11.98,0-18.15,0c0,5.58,0,11.2,0,17.3c-5.14,0-9.96,0.13-14.77-0.05c-2.56-0.1-3.49,0.65-3.38,3.3
			c0.2,4.73,0.06,9.48,0.06,14.47c-5.79,0-11.39,0-17.38,0c0-11.67,0-23.3,0-35.31c-6,0-11.61,0-17.61,0c0-17.93,0-35.47,0-53.39
			c-6.12,0-11.84,0-17.77,0c0-11.68,0-22.99,0-34.69c5.63,0,11.35,0,17.4,0c0-6.2,0-12.01,0-18.22c-5.72,0-11.45,0-17.39,0
			c0-5.99,0-11.59,0-17.35c11.68,0,23.21,0,35.06,0c0,17.6,0,35.05,0,52.81c6.13,0,11.94,0,18.1,0c0-5.65,0-11.28,0-17.26
			c5.93,0,11.55,0,17.71,0c0-6.14,0-11.95,0-17.94c6.05,0,11.55,0,17.5,0c0,5.87,0,11.6,0,18.07c6.49-0.33,12.52-0.64,18.54-0.95
			c0,6.03,0,12.06,0,18.08c-6.01,0-12.01,0-18.49,0c0,5.88,0,11.48,0,17.41c-6.1,0-11.72,0-17.76,0c0,6.04,0,11.76,0,17.76
			c-11.98,0-23.54,0-35.29,0c0,6.15,0,11.98,0,18.03c11.85,0,23.48,0,35.68,0c0-5.97,0-11.78,0-17.52c6.08,0,11.6,0,17.53,0
			c0,5.95,0,11.69,0,17.18c6.39,0,12.36,0,18.33,0C1160.2,542.24,1160.2,554.3,1160.2,566.35z"/>
		<path d="M1160.2,388.29c-1.15,0.1-2.3,0.3-3.45,0.3c-39.49,0.02-78.98,0.01-118.48,0.01c-0.92,0-1.84-0.09-3.27-0.16
			c0-41.61,0-83.13,0-124.65c41.73,0,83.46,0,125.2,0C1160.2,305.29,1160.2,346.79,1160.2,388.29z M1141.53,282.09
			c-29.55,0-58.9,0-88.21,0c0,29.5,0,58.76,0,88.04c29.51,0,58.77,0,88.21,0C1141.53,340.68,1141.53,311.44,1141.53,282.09z"/>
		<path d="M715.05,583.74c41.43,0,82.87,0,124.61,0c0.08,1.51,0.19,2.74,0.19,3.97c0.01,39.03,0.01,78.06-0.01,117.09
			c0,1.38-0.2,2.76-0.3,4.14c-41.5,0-83,0-124.5,0C715.05,667.21,715.05,625.47,715.05,583.74z M821.35,690.28
			c0-29.53,0-58.87,0-88.26c-29.49,0-58.74,0-87.96,0c0,29.56,0,58.9,0,88.26C762.85,690.28,792.01,690.28,821.35,690.28z"/>
		<path d="M839.56,263.79c0.1,1.26,0.3,2.53,0.3,3.79c0.02,39.02,0.01,78.03,0.01,117.05c0,1.14,0,2.27,0,3.77
			c-1.52,0.08-2.75,0.2-3.97,0.2c-39.02,0.01-78.03,0.01-117.05,0c-1.26,0-2.53-0.2-3.79-0.3c0-41.44,0-82.89,0-124.5
			C756.55,263.79,798.06,263.79,839.56,263.79z M733.33,281.97c0,29.58,0,58.84,0,88.12c29.48,0,58.74,0,88.02,0
			c0-29.49,0-58.74,0-88.12C791.94,281.97,762.77,281.97,733.33,281.97z"/>
		<path class="st0" d="M1160.2,655.38c-3.9-0.2-7.79-0.43-11.69-0.59c-1.96-0.08-3.92-0.01-6.28-0.01c0-11.79,0-23.42,0-35.29
			c-6.12,0-11.86,0-18.09,0c0,5.68,0,11.5,0,17.5c-6,0-11.5,0-17.41,0c0-5.76,0-11.48,0-17.56c-6.12,0-11.85,0-17.85,0
			c0-5.95,0-11.55,0-17.51c5.73,0,11.47,0,17.61,0c0-6.06,0-11.79,0-17.88c6.03,0,11.65,0,17.66,0c0-5.98,0-11.59,0-17.47
			c5.97,0,11.56,0,17.6,0c0,11.7,0,23.33,0,35.25c6.45,0,12.45,0,18.45,0C1160.2,619.68,1160.2,637.53,1160.2,655.38z"/>
		<path class="st0" d="M715.05,512.8c11.79,0,23.58,0,35.74,0c0-11.81,0-23.23,0-34.9c5.87,0,11.38,0,17.31,0
			c0,5.46,0,10.95,0,16.75c6.25,0,12.09,0,18.33,0c0-5.5,0-11,0-16.75c6,0,11.61,0,17.39,0c0,17.39,0,34.61,0,52.07
			c-5.67,0-11.26,0-17.18,0c0-5.72,0-11.35,0-17.27c-6.16,0-12,0-18.31,0c0,5.81,0,11.55,0,17.49c-18.07,0-35.67,0-53.28,0
			C715.05,524.39,715.05,518.59,715.05,512.8z"/>
		<path class="st0" d="M1105.95,708.94c0.31-5.94,0.63-11.89,0.97-18.38c-6.33,0-12.14,0-18.12,0c0-11.93,0-23.33,0-34.98
			c11.66,0,23.26,0,35.18,0c0,5.68,0,11.29,0,17.19c12.29,0,24.25,0,36.22,0c0,6.03,0,12.06,0,18.08
			c-5.53-0.12-11.06-0.31-16.58-0.29c-0.63,0-1.79,1.16-1.79,1.79c-0.02,5.53,0.16,11.06,0.29,16.58
			C1130.06,708.94,1118,708.94,1105.95,708.94z"/>
		<path d="M928.58,263.79c0,11.78,0,23.55,0,35.77c-5.39,0-10.69,0.11-15.97-0.13c-0.7-0.03-1.86-1.75-1.9-2.72
			c-0.2-4.83-0.09-9.67-0.09-14.68c-11.76,0-23.18,0-34.8,0c0,5.71,0,11.3,0,17.25c5.79,0,11.41,0,17.2,0c0,6.1,0,11.84,0,17.83
			c-5.88,0-11.71,0-17.85,0c0-5.73,0-11.37,0-17.37c-5.92,0-11.55,0-16.82,0c-0.51-0.54-0.8-0.71-0.8-0.87
			c0.02-11.69,0.06-23.38,0.1-35.07C881.29,263.79,904.94,263.79,928.58,263.79z"/>
		<path d="M1160.2,530.18c-5.97,0-11.94,0-18.33,0c0-5.5,0-11.23,0-17.18c-5.93,0-11.45,0-17.53,0c0,5.74,0,11.55,0,17.52
			c-12.2,0-23.83,0-35.68,0c0-6.04,0-11.88,0-18.03c11.75,0,23.3,0,35.29,0c0-6.01,0-11.73,0-17.76c6.04,0,11.67,0,17.76,0
			c0-5.92,0-11.53,0-17.41c6.48,0,12.49,0,18.49,0C1160.2,494.94,1160.2,512.56,1160.2,530.18z"/>
		<path d="M928.58,708.94c0-5.88,0-11.77,0-18c-5.97,0-11.7,0-17.87,0c0-6.06,0-11.78,0-17.89c-6.05,0-11.66,0-17.48,0
			c0-6.23,0-12.05,0-18.27c6.08,0,11.95,0,17.82,0c4.86,0,9.73,0.15,14.58-0.06c2.68-0.11,3.39,0.86,3.3,3.38
			c-0.17,4.72-0.05,9.45-0.05,14.54c5.79,0,11.28,0,17.07,0c0,12.34,0,24.31,0,36.29C940.18,708.94,934.38,708.94,928.58,708.94z"/>
		<path d="M857.64,708.94c-0.1-2.54-0.3-5.07-0.3-7.61c-0.03-14.01-0.01-28.01-0.01-42.02c0-1.36,0-2.72,0-4.5
			c5.82,0,11.23-0.1,16.63,0.14c0.59,0.03,1.57,1.96,1.58,3.03c0.12,9.38,0.07,18.75,0.07,28.13c0,1.26,0,2.52,0,4.3
			c5.91,0,11.62,0,17.51,0c0,6.53,0,12.53,0,18.54C881.29,708.94,869.46,708.94,857.64,708.94z"/>
		<path class="st0" d="M1053.09,708.94c0-5.89,0-11.77,0-17.88c11.76,0,23.29,0,35.47,0c0,5.93,0,11.9,0,17.88
			C1076.73,708.94,1064.91,708.94,1053.09,708.94z"/>
		<path class="st0" d="M1034.83,672.71c0.06,12.08,0.12,24.15,0.17,36.23c-6.03,0-12.06,0-18.08,0c0.22-1.33,0.62-2.65,0.62-3.98
			c0.05-10.48,0.03-20.96,0.03-32.14c5.93,0,11.65,0,17.37,0L1034.83,672.71z"/>
		<path class="st0" d="M981.45,708.94c0.18-1.35,0.51-2.71,0.52-4.06c0.05-9.26,0.02-18.51,0.02-27.77c0-1.24,0-2.47,0-3.9
			c5.92,0,11.42,0,17.54,0c0,12.01,0,23.87,0,35.73C993.5,708.94,987.47,708.94,981.45,708.94z"/>
		<path d="M1142.12,708.94c-0.12-5.53-0.31-11.06-0.29-16.58c0-0.63,1.16-1.79,1.79-1.79c5.53-0.02,11.06,0.16,16.58,0.29
			c0,6.03,0,12.06,0,18.08C1154.17,708.94,1148.14,708.94,1142.12,708.94z"/>
		<path d="M981.45,263.79c0.25,5.82,0.51,11.65,0.78,17.77c-6.37,0-12.18,0-18.17,0c0-5.89,0-11.83,0-17.77
			C969.85,263.79,975.65,263.79,981.45,263.79z"/>
		<path class="st0" d="M715.05,441.85c5.66,0,11.32,0,17.24,0c0,5.93,0,11.52,0,17.19c-5.8,0.3-11.52,0.6-17.24,0.9
			C715.05,453.91,715.05,447.88,715.05,441.85z"/>
		<path class="st0" d="M715.05,477.32c5.74,0,11.48,0,17.36,0c0,6.16,0,11.55,0,17.39c-5.88,0-11.62,0-17.36,0
			C715.05,488.91,715.05,483.12,715.05,477.32z"/>
		<path class="st0" d="M892.93,495.23c0,11.75,0,23.09,0,34.83c-11.72,0-23.35,0-35.54,0c0,6.19,0,12.01,0,17.95
			c-17.92,0-35.27,0-52.92,0c0-5.66,0-11.25,0-17.29c4.38,0,8.74,0,13.1,0c6.49,0,12.98,0.07,19.47-0.08
			c0.95-0.02,2.66-1.01,2.68-1.6c0.21-5.41,0.12-10.82,0.12-16.6c-6.05,0-11.68,0-17.5,0c0-5.89,0-11.41,0-17.21
			C845.78,495.23,869.21,495.23,892.93,495.23z"/>
		<path class="st0" d="M1070.26,619.12c-17.55,0-34.88,0-52.45,0c0-17.51,0-34.92,0-52.57c17.39,0,34.8,0,52.45,0
			C1070.26,583.94,1070.26,601.35,1070.26,619.12z M1035.28,583.86c0,6.19,0,12,0,17.75c6.01,0,11.74,0,17.57,0
			c0-6.01,0-11.81,0-17.75C1046.9,583.86,1041.17,583.86,1035.28,583.86z"/>
		<path class="st0" d="M1034.94,672.82c0.1-10.05,0.2-20.1,0.3-30.15c0.02-1.6,0-3.2,0-5.05c11.82,0,23.3,0,35.02,0
			c0,11.61,0,23.21,0,35.09c-11.9,0-23.67,0-35.44,0C1034.83,672.71,1034.94,672.82,1034.94,672.82z"/>
		<path class="st0" d="M857.81,477.13c0-5.84,0-11.35,0-17.05c11.69,0,23.23,0,34.99,0c0,5.66,0,11.26,0,17.05
			C881.14,477.13,869.61,477.13,857.81,477.13z"/>
		<path class="st0" d="M910.33,565.61c-5.69,0-11.19,0-16.91,0c0-5.72,0-11.29,0-17.08c5.64,0,11.13,0,16.91,0
			C910.33,554.1,910.33,559.67,910.33,565.61z"/>
		<path class="st0" d="M822.28,477.05c0-5.71,0-11.22,0-16.94c5.74,0,11.33,0,17.1,0c0,5.64,0,11.16,0,16.94
			C833.81,477.05,828.21,477.05,822.28,477.05z"/>
		<path class="st0" d="M999.74,672.58c0-5.75,0-11.25,0-17c5.67,0,11.26,0,17.06,0c0,5.64,0,11.23,0,17
			C1011.15,672.58,1005.65,672.58,999.74,672.58z"/>
		<path class="st0" d="M804.07,441.73c0,5.66,0,11.33,0,17.31c-5.8,0-11.39,0-17.24,0c0-5.51,0-11.1,0-17.19c5.85,0,11.6,0,17.36,0
			C804.19,441.85,804.07,441.73,804.07,441.73z"/>
		<path d="M946.03,317.03c0-6.12,0-11.76,0-17.58c6.01,0,11.76,0,17.91,0c0,5.73,0,11.45,0,17.37c6.02,0,11.64,0,17.55,0
			c0-5.84,0-11.48,0-17.34c6.03,0,11.77,0,17.81,0c0,5.75,0,11.57,0,17.76c-5.57,0-11.19,0-17.24,0c0,11.97,0,23.59,0,35.6
			c-12.07,0-23.71,0-35.78,0c0,12.02,0,23.66,0,35.53c-6.04,0-11.65,0-17.63,0c0-11.76,0-23.41,0-35.25c-5.88,0-11.39,0-17.31,0
			c0,11.6,0,23.22,0,35.4c-6.21,0-12.03,0-18.09,0c0,12.11,0,23.67,0,35.5c-1.09,0.13-1.96,0.32-2.84,0.32
			c-9.97,0.02-19.93-0.02-29.9,0.04c-2.02,0.01-3.22-0.23-3.21-2.75c0.07-28.28,0.05-56.55,0.07-84.83c0-0.55,0.18-1.1,0.31-1.82
			c5.86,0,11.61,0,17.76,0c0,5.78,0,11.51,0,17.51c11.81,0,23.22,0,35.02,0c0.06-1.16,0.17-2.38,0.17-3.6
			c0.01-9.5,0.09-19.01-0.05-28.51c-0.04-2.58,0.69-3.42,3.32-3.38c9.27,0.14,18.54,0.05,27.81,0.05
			C942.95,317.03,944.21,317.03,946.03,317.03z M892.74,388.21c0-5.74,0-11.41,0-17.08c-5.77,0-11.36,0-16.84,0
			c0,5.85,0,11.43,0,17.08C881.62,388.21,887.04,388.21,892.74,388.21z"/>
		<path d="M963.81,512.7c-5.96,0-11.61,0-17.55,0c0-5.84,0-11.65,0-17.73c5.69,0,11.5,0,17.55,0
			C963.81,500.75,963.81,506.56,963.81,512.7z"/>
		<path class="st0" d="M1141.53,282.09c0,29.35,0,58.59,0,88.04c-29.44,0-58.71,0-88.21,0c0-29.28,0-58.53,0-88.04
			C1082.62,282.09,1111.97,282.09,1141.53,282.09z M1123.98,352.76c0-18,0-35.64,0-53.25c-17.94,0-35.59,0-53.21,0
			c0,17.9,0,35.54,0,53.25C1088.6,352.76,1106.17,352.76,1123.98,352.76z"/>
		<path class="st0" d="M821.35,690.28c-29.35,0-58.51,0-87.96,0c0-29.36,0-58.7,0-88.26c29.22,0,58.47,0,87.96,0
			C821.35,631.41,821.35,660.76,821.35,690.28z M804.03,619.51c-18.03,0-35.67,0-53.26,0c0,17.93,0,35.59,0,53.21
			c17.89,0,35.53,0,53.26,0C804.03,654.85,804.03,637.29,804.03,619.51z"/>
		<path class="st0" d="M733.33,281.97c29.44,0,58.61,0,88.02,0c0,29.38,0,58.63,0,88.12c-29.29,0-58.54,0-88.02,0
			C733.33,340.81,733.33,311.55,733.33,281.97z M750.77,299.44c0,17.91,0,35.57,0,53.18c17.9,0,35.56,0,53.21,0
			c0-17.86,0-35.43,0-53.18C786.22,299.44,768.64,299.44,750.77,299.44z"/>
		<path d="M1035.28,583.86c5.89,0,11.62,0,17.57,0c0,5.94,0,11.75,0,17.75c-5.83,0-11.56,0-17.57,0
			C1035.28,595.86,1035.28,590.05,1035.28,583.86z"/>
		<path class="st0" d="M892.74,388.21c-5.71,0-11.12,0-16.84,0c0-5.65,0-11.24,0-17.08c5.48,0,11.07,0,16.84,0
			C892.74,376.8,892.74,382.47,892.74,388.21z"/>
		<path d="M1123.98,352.76c-17.81,0-35.38,0-53.21,0c0-17.71,0-35.35,0-53.25c17.63,0,35.27,0,53.21,0
			C1123.98,317.12,1123.98,334.76,1123.98,352.76z"/>
		<path d="M804.03,619.51c0,17.78,0,35.34,0,53.21c-17.73,0-35.37,0-53.26,0c0-17.62,0-35.28,0-53.21
			C768.36,619.51,786,619.51,804.03,619.51z"/>
		<path d="M750.77,299.44c17.88,0,35.45,0,53.21,0c0,17.75,0,35.33,0,53.18c-17.65,0-35.31,0-53.21,0
			C750.77,335.01,750.77,317.35,750.77,299.44z"/>
	</g>
</g>
</svg>
